<svg xmlns="http://www.w3.org/2000/svg" viewBox="0 0 171.92 66.79">
  <g id="Layer_2" data-name="Layer 2">
    <g id="Isolation_Mode" data-name="Isolation Mode">
      <path fill="#fff" d="M.07,44V43a.11.11,0,0,0,.1,0H.29l.66-.1a3.55,3.55,0,0,0,.64-.17A1.29,1.29,0,0,0,2.36,42a4.76,4.76,0,0,0,.32-1.15c0-.23,0-.47,0-.7s0-.43,0-.61V29.66a1.52,1.52,0,0,0-.68-.52A2.76,2.76,0,0,0,1.16,29H.07v-1H4.73l8.86,12h.05V31.49a2.85,2.85,0,0,0-.57-1.93,3,3,0,0,0-2-.61v-1h6.27v1c-1.09.08-1.78.32-2.08.74a4.09,4.09,0,0,0-.51,2.14V44.37h-.87l-10-13.66H3.86v9.42a12.36,12.36,0,0,0,.07,1.24,2.09,2.09,0,0,0,.51,1.1,2.47,2.47,0,0,0,.44.27l.48.18.28,0,.3,0,.3,0h.28v1Z"></path>
      <path fill="#fff" d="M18.53,28.92v-1H32l.31,5.71h-.93c-.38-2.11-.93-3.42-1.68-3.93A8.06,8.06,0,0,0,25.49,29l-.45,0a5.59,5.59,0,0,0-1.25.14c-.26.07-.4.33-.4.76v5.35h.8a2.89,2.89,0,0,0,2.17-.68,3.47,3.47,0,0,0,.8-2.35l1,0v7.34h-1a4.07,4.07,0,0,0-.61-2.36,2.2,2.2,0,0,0-1.93-.88H23.39v6a1,1,0,0,0,0,.2.92.92,0,0,0,.1.24l.12.14a1,1,0,0,0,.41.16l.43,0h.18a4.41,4.41,0,0,0,.72.08H27a5.88,5.88,0,0,0,.93-.1,3.16,3.16,0,0,0,2.52-1.27A8.54,8.54,0,0,0,31.52,39l0-.13,0-.14c0-.09,0-.18.06-.29s.05-.21.08-.33l.91,0-.42,6H18.48V43h.67a.34.34,0,0,0,.14,0,.32.32,0,0,0,.13,0h.19l.21,0a2.18,2.18,0,0,0,.68-.16.66.66,0,0,0,.41-.51,2,2,0,0,0,0-.24c0-.08,0-.16,0-.25V30.08c0-.07,0-.15,0-.23a1.85,1.85,0,0,1,0-.23.59.59,0,0,0-.24-.46,1.1,1.1,0,0,0-.5-.15c-.28,0-.56,0-.84-.05h-.83Z"></path>
      <path fill="#fff" d="M34.08,27.92h6.25v1l-.43,0a3.25,3.25,0,0,1-.44,0A3,3,0,0,0,39,29a3.32,3.32,0,0,0-.44.06l-.06,0-.05,0a.36.36,0,0,0-.12.16.48.48,0,0,0,0,.22s0,.06,0,.12,0,.13,0,.2a.08.08,0,0,1,0,0v0a1.56,1.56,0,0,0,.05.16.39.39,0,0,0,0,.09l3.21,10,2.71-9-.67-1.87a.57.57,0,0,0-.34-.27,2.37,2.37,0,0,0-.49-.09l-.1,0H42.7a.11.11,0,0,0-.08,0h-.1l-.69,0v-1h6.45v1l-.77,0a4.9,4.9,0,0,0-.77.08l-.14.06-.09,0a.1.1,0,0,0-.06.05l-.05.08,0,.1a1.31,1.31,0,0,0,0,.15,1.75,1.75,0,0,0,.08.51c0,.16.11.33.17.51a.13.13,0,0,0,0,.06l0,.08,3,9.46,2.61-8.88c0-.05,0-.1,0-.17s0-.13,0-.19a.36.36,0,0,0,0-.09s0-.06,0-.09a1.59,1.59,0,0,0,.06-.3,1.3,1.3,0,0,0,0-.26.92.92,0,0,0-.46-.91A2.79,2.79,0,0,0,51,29h-.64v-1h5.42v1a1.92,1.92,0,0,0-1.65.8,6.45,6.45,0,0,0-.72,1.68l0,.1,0,.1L49.48,44.37h-.89L44.93,33.08,41.6,44.37h-.91l-4.8-14.46-.09-.23-.09-.2a.69.69,0,0,0-.38-.43,2.64,2.64,0,0,0-.71-.1h-.23l-.31,0Z"></path>
      <path fill="#fff" d="M62.69,44V43h.49a5.42,5.42,0,0,0,.58-.06,4.35,4.35,0,0,0,1-.21c.3-.1.44-.24.44-.43V29.64a.51.51,0,0,0-.41-.51,3.27,3.27,0,0,0-.91-.16h-1l-.2,0v-1H70.1v1a3.33,3.33,0,0,1-.41,0h-.52l-.6,0a3,3,0,0,0-.41,0,.54.54,0,0,0-.36.19.6.6,0,0,0-.17.36.09.09,0,0,0,0,.06v5.48h7.46v-5.6a.39.39,0,0,0-.13-.29.58.58,0,0,0-.3-.18,1.92,1.92,0,0,0-.44-.07l-.58,0a1.18,1.18,0,0,0-.26,0H72.6v-1H80v1a1.6,1.6,0,0,1-.3,0h-1A4.29,4.29,0,0,0,78,29a.76.76,0,0,0-.38.14.51.51,0,0,0-.11.37V42.29a.5.5,0,0,0,.19.41,1.31,1.31,0,0,0,.46.22,5.58,5.58,0,0,0,.59.09l.61,0h.3l.31,0v1H72.56V43H73.7a3.68,3.68,0,0,0,.9-.16.62.62,0,0,0,.44-.62l0-6H67.6v6.07a.51.51,0,0,0,.18.39.82.82,0,0,0,.4.21l.39,0,.53,0a5.33,5.33,0,0,0,.56,0h.4v1Z"></path>
      <path fill="#fff" d="M97,36a8.23,8.23,0,0,1-.13,1.37,9,9,0,0,1-.37,1.44A9.71,9.71,0,0,1,94,42.63a6.42,6.42,0,0,1-4.68,1.74,6.89,6.89,0,0,1-5.59-2.57A8.86,8.86,0,0,1,81.64,36a8.05,8.05,0,0,1,.12-1.35,11.74,11.74,0,0,1,.37-1.44,10,10,0,0,1,2.49-3.85,6.35,6.35,0,0,1,4.68-1.75,6.89,6.89,0,0,1,5.59,2.57A9,9,0,0,1,97,36Zm-2.86,0c0-.39,0-.86,0-1.42a10.88,10.88,0,0,0-.24-1.73,7.12,7.12,0,0,0-1.34-2.9,3.78,3.78,0,0,0-3.21-1.32,3.69,3.69,0,0,0-3.49,1.74,9.79,9.79,0,0,0-1.22,3.84c0,.3,0,.6-.07.91s0,.6,0,.9,0,.88,0,1.44a9.89,9.89,0,0,0,.25,1.73,7.12,7.12,0,0,0,1.34,2.9,3.78,3.78,0,0,0,3.21,1.32,3.68,3.68,0,0,0,3.48-1.74,9.69,9.69,0,0,0,1.23-3.84c0-.3,0-.6.07-.91s0-.6,0-.9Z"></path>
      <path fill="#fff" d="M98.62,27.92h8.13l.6,0,.6.07a6.63,6.63,0,0,1,3,1.11,3.11,3.11,0,0,1,1.35,2.78,3.11,3.11,0,0,1-1.37,2.81,7,7,0,0,1-3,1.09l-.41,0-.4,0v0a3.91,3.91,0,0,1,2.25.91,4.34,4.34,0,0,1,1.19,2.12l.38,1.43c0,.08,0,.14,0,.2s0,.13,0,.21a.11.11,0,0,0,0,0,.13.13,0,0,1,0,.06,8.52,8.52,0,0,0,.22.87,2.65,2.65,0,0,0,.41.78,1.62,1.62,0,0,0,.27.13.74.74,0,0,0,.24,0,.57.57,0,0,0,.51-.37,3,3,0,0,0,.25-.82,4.17,4.17,0,0,0,.08-.59c0-.18,0-.33,0-.43l.91,0v.27a6.34,6.34,0,0,1-.6,2.49,2.2,2.2,0,0,1-2.21,1.13l-.33,0-.36-.08a3.83,3.83,0,0,1-.65-.3,1.76,1.76,0,0,1-.49-.44,4.06,4.06,0,0,1-.47-.87,5.26,5.26,0,0,1-.27-1c0-.15,0-.29,0-.42a2.62,2.62,0,0,1,0-.38c0-.09,0-.18,0-.26a1.6,1.6,0,0,0,0-.23.53.53,0,0,0,0-.13.49.49,0,0,1,0-.12,6.28,6.28,0,0,0-.84-2.9c-.45-.69-1.37-1-2.76-1h-1.24v5.7a3.12,3.12,0,0,0,0,.62c0,.19.19.32.46.4a2.05,2.05,0,0,0,.56.1h1l.31,0v1H98.58V43h.91a5.87,5.87,0,0,0,.74-.05,1.32,1.32,0,0,0,.65-.26l.08-.1a.5.5,0,0,0,.05-.13s0,0,0,0a.09.09,0,0,0,0-.05.8.8,0,0,0,0-.18l0-.17V30a1.11,1.11,0,0,0,0-.19,1.15,1.15,0,0,0,0-.16c0-.06,0-.12,0-.2a.63.63,0,0,0-.32-.38,2.43,2.43,0,0,0-.44-.09H100l-1.41-.07Zm4.92,2.32v4.89a2.59,2.59,0,0,0,.47,0l.48,0h.94l.41,0a2.86,2.86,0,0,0,.42,0l.41,0,.41,0,.18,0,.18,0a3.31,3.31,0,0,0,.9-.31,2,2,0,0,0,.73-.62,2.33,2.33,0,0,0,.24-.5c.08-.21.15-.42.21-.64a3.32,3.32,0,0,0,.06-.44,2.77,2.77,0,0,0,0-.39A4.08,4.08,0,0,0,109.1,30a2.11,2.11,0,0,0-1.86-1c-.4,0-.8-.06-1.21-.07s-.81,0-1.22,0h-.22l-.3,0a1.67,1.67,0,0,0-.35.07.53.53,0,0,0-.21.09,1,1,0,0,0-.12.28,2.4,2.4,0,0,0,0,.32,1.23,1.23,0,0,0,0,.27v.22Z"></path>
      <path fill="#fff" d="M115,44V43a.65.65,0,0,0,.2,0h.72l.55,0a1.88,1.88,0,0,0,.43-.09c.29-.12.47-.27.51-.44a2.53,2.53,0,0,0,.07-.68V30.06c0-.1,0-.2,0-.29a1.31,1.31,0,0,0-.06-.27.61.61,0,0,0-.07-.14.72.72,0,0,0-.11-.15,1.34,1.34,0,0,0-.66-.23,4.33,4.33,0,0,0-.72,0h-.61L115,29v-1h7.37v1l-.91,0c-.3,0-.6,0-.9.05a1.44,1.44,0,0,0-.35.16.9.9,0,0,0-.23.27.06.06,0,0,1,0,0l0,.05c0,.12,0,.24,0,.37s0,.25,0,.36v12a1.8,1.8,0,0,0,0,.22l0,0s0,0,0,.05l0,0a.37.37,0,0,0,.07.12l.09.1a1.2,1.2,0,0,0,.66.26,4.56,4.56,0,0,0,.74,0h.59l.19,0v1Z"></path>
      <path fill="#fff" d="M125.29,33.59h-.91l.4-5.67h11.07v.85L126.63,43h3.46a3.35,3.35,0,0,0,.55,0l.55,0q.48-.07,1-.18a3.66,3.66,0,0,0,.87-.34,2.31,2.31,0,0,0,.9-.88,8.37,8.37,0,0,0,.5-1.13l.06-.14a.84.84,0,0,0,.05-.17,4.89,4.89,0,0,0,.19-.62,4.7,4.7,0,0,0,.13-.63q.06-.24.12-.51a5,5,0,0,0,.08-.54l1,.05-.4,6.11h-11.9v-.87l9.18-14.24h-3.06c-1.56,0-2.6.33-3.12.95a7,7,0,0,0-1.21,2.76c0,.16-.07.32-.1.48s-.08.32-.13.5Z"></path>
      <path fill="#fff" d="M153.19,36a8.19,8.19,0,0,1-.12,1.37,10.17,10.17,0,0,1-.37,1.44,9.74,9.74,0,0,1-2.49,3.84,6.38,6.38,0,0,1-4.67,1.74A6.87,6.87,0,0,1,140,41.8a8.86,8.86,0,0,1-2.11-5.8,8.05,8.05,0,0,1,.12-1.35,9,9,0,0,1,.37-1.44,9.73,9.73,0,0,1,2.49-3.85,6.35,6.35,0,0,1,4.67-1.75,6.87,6.87,0,0,1,5.59,2.57A8.93,8.93,0,0,1,153.19,36Zm-2.85,0c0-.39,0-.86-.05-1.42a9.89,9.89,0,0,0-.25-1.73,7.1,7.1,0,0,0-1.33-2.9,3.78,3.78,0,0,0-3.22-1.32A3.68,3.68,0,0,0,142,30.35a9.64,9.64,0,0,0-1.23,3.84c0,.3-.05.6-.06.91s0,.6,0,.9,0,.88.05,1.44a10.88,10.88,0,0,0,.24,1.73,7.25,7.25,0,0,0,1.34,2.9,3.78,3.78,0,0,0,3.22,1.32A3.68,3.68,0,0,0,149,41.65a9.69,9.69,0,0,0,1.23-3.84c0-.3.05-.6.06-.91s0-.6,0-.9Z"></path>
      <path fill="#fff" d="M154.62,44V43a.11.11,0,0,0,.1,0h.12l.66-.1a3.55,3.55,0,0,0,.64-.17,1.32,1.32,0,0,0,.77-.75,4.76,4.76,0,0,0,.32-1.15c0-.23,0-.47,0-.7s0-.43,0-.61V29.66a1.47,1.47,0,0,0-.68-.52,2.65,2.65,0,0,0-.88-.17h-1.09v-1h4.66l8.86,12h.05V31.49a2.85,2.85,0,0,0-.57-1.93,3,3,0,0,0-2-.61v-1h6.28v1c-1.09.08-1.78.32-2.08.74a4.09,4.09,0,0,0-.51,2.14V44.37h-.87l-10-13.66h-.05v9.42a12.36,12.36,0,0,0,.07,1.24,2.09,2.09,0,0,0,.51,1.1,2.47,2.47,0,0,0,.44.27,3.94,3.94,0,0,0,.48.18l.28,0,.3,0,.3,0h.28v1Z"></path>
      <path fill="#f6b124" d="M39.08,65.67a2.64,2.64,0,0,1-.83-.11c-.21-.07-.4-.33-.56-.72l-5-12.12H32L27.45,64.21v0a2.15,2.15,0,0,1-.72,1.07,1.94,1.94,0,0,1-1.21.37v.84h4.93V65.7c-.09,0-.18,0-.3,0l-.33,0a2.15,2.15,0,0,1-.88-.26.78.78,0,0,1-.4-.76.8.8,0,0,1,0-.28.78.78,0,0,1,0-.21,2,2,0,0,0,.07-.23,1.17,1.17,0,0,1,.1-.26,5.14,5.14,0,0,1,.16-.51c.07-.19.12-.35.19-.51s.07-.17.11-.26.05-.16.1-.26h5l1.12,2.73v0s0,0,0,.05a.78.78,0,0,1,0,.14v.09a.37.37,0,0,1-.12.26.42.42,0,0,1-.21.16h-.06l-.52.07-.53,0H34s0,0-.07,0h-.19l-.16,0v.84h5.74V65.7H39.2C39.15,65.7,39.11,65.67,39.08,65.67Zm-9.4-4.51,2.15-5.51L34,61.16Z"></path>
      <path fill="#f6b124" d="M45.76,53h5.05v.83a1.75,1.75,0,0,0-1.44.42,4.24,4.24,0,0,0-.77,1.35L44.25,66.79h-.7L38.9,55.16l-.14-.35c0-.12-.1-.21-.14-.3a1,1,0,0,0-.56-.56A3.16,3.16,0,0,0,37,53.86V53h5.81v.83l-.21,0h-.93a1.25,1.25,0,0,0-.53.11c-.17.07-.24.21-.24.47a.27.27,0,0,0,.05.16c0,.07,0,.14.07.23v.05s0,0,0,0a.77.77,0,0,1,.07.16.59.59,0,0,1,.05.14l3.35,8.54,2.77-7.45.07-.11a.24.24,0,0,1,0-.14,2.13,2.13,0,0,0,.11-.33,1.06,1.06,0,0,0,.09-.33l.07-.27v-.28a.72.72,0,0,0-.37-.72,1.8,1.8,0,0,0-.79-.26,2.42,2.42,0,0,0-.37,0h-.35Z"></path>
      <path fill="#f6b124" d="M24.71,63.91c0,.16,0,.32-.05.51a3.28,3.28,0,0,1-.21.67.49.49,0,0,1-.44.33.9.9,0,0,1-.19,0,1.2,1.2,0,0,1-.23-.11,2,2,0,0,1-.35-.66,7.25,7.25,0,0,1-.19-.74v0a.07.07,0,0,1,0,0c0-.05,0-.12,0-.17a.5.5,0,0,1-.05-.16l-.3-1.21a3.6,3.6,0,0,0-1-1.77,3.32,3.32,0,0,0-1.89-.76v0a2.06,2.06,0,0,0,.35,0l.33,0A5.75,5.75,0,0,0,23,58.69,3,3,0,0,0,23,54a5.51,5.51,0,0,0-2.48-.93L20,53l-.51,0H12.66v.83l1.18.05h.07s0,0,.05,0H14l.37.07a.58.58,0,0,1,.26.33.62.62,0,0,1,0,.16.24.24,0,0,1,0,.14s0,.09,0,.16V64.84a1.42,1.42,0,0,1-.05.16.34.34,0,0,1,0,.14v0l0,0a.16.16,0,0,1-.05.11s0,.05,0,.1a1.31,1.31,0,0,1-.56.21,5.49,5.49,0,0,1-.6,0h-.77v.84H18.8V65.7a.72.72,0,0,0-.26,0h-.37a4,4,0,0,1-.49,0,1.35,1.35,0,0,1-.46-.07c-.24-.07-.35-.19-.38-.35a2,2,0,0,1-.07-.51V59.93h1.07a2.71,2.71,0,0,1,2.31.88,5.44,5.44,0,0,1,.69,2.44s0,.07,0,.1v.11a.55.55,0,0,1,0,.19c0,.07,0,.14,0,.21s0,.21,0,.33,0,.23,0,.34a5.47,5.47,0,0,0,.21.82,4.17,4.17,0,0,0,.4.72,1.49,1.49,0,0,0,.42.37,2.59,2.59,0,0,0,.53.26l.31.07a1.42,1.42,0,0,0,.27,0,1.83,1.83,0,0,0,1.87-1,5.68,5.68,0,0,0,.51-2.07v-.24l-.77,0A2.37,2.37,0,0,1,24.71,63.91Zm-5.63-4.84a2,2,0,0,0-.35,0H17.19c-.14,0-.28,0-.42-.05v-4.3c0-.07,0-.14,0-.21a1.7,1.7,0,0,0,0-.28A1.27,1.27,0,0,1,17,54a.34.34,0,0,1,.16-.07l.3-.07.26,0h.16c.35,0,.7,0,1.05,0s.68,0,1,0a1.75,1.75,0,0,1,1.56.81,3.45,3.45,0,0,1,.42,1.74v.33c0,.12-.05.26-.07.37a4.26,4.26,0,0,1-.16.54,4.1,4.1,0,0,1-.21.42,2,2,0,0,1-.61.53,2.69,2.69,0,0,1-.77.26l-.14,0a.37.37,0,0,1-.16,0,2.69,2.69,0,0,1-.32.05A1.34,1.34,0,0,0,19.08,59.07Z"></path>
      <path fill="#f6b124" d="M76.26,61.42l-.4,5.09h-11v-.84h.68a1.83,1.83,0,0,0,.32,0,1.94,1.94,0,0,0,.33,0c.35,0,.56-.14.6-.35a2.24,2.24,0,0,0,.1-.72v-10a.75.75,0,0,0,0-.24.31.31,0,0,0-.11-.2s0,0,0-.07-.07,0-.09-.07,0,0,0,0h0l0,0-.41-.07h-.42a2.82,2.82,0,0,0-.4,0h-.42V53H71v.83c-.21,0-.39,0-.6,0a5.82,5.82,0,0,0-.59,0h-.18l-.28,0a.66.66,0,0,0-.26.14s0,0-.07.07a.28.28,0,0,0,0,.12s0,0,0,0,0,0,0,0a.34.34,0,0,0,0,.14.32.32,0,0,0,0,.16V64.86a1.59,1.59,0,0,0,.12.44.55.55,0,0,0,.3.3,3.29,3.29,0,0,0,.54.05,5.07,5.07,0,0,0,.56,0h1c.17,0,.31,0,.47,0a4.88,4.88,0,0,0,1-.16,3.18,3.18,0,0,0,.9-.35,2,2,0,0,0,.79-.81,6.91,6.91,0,0,0,.47-1,2,2,0,0,1,.07-.19.69.69,0,0,1,0-.13,5.52,5.52,0,0,0,.16-.54c0-.16.07-.35.12-.51a1.35,1.35,0,0,0,0-.28c0-.07,0-.16,0-.26Z"></path>
      <path fill="#f6b124" d="M11.49,53l.3,5.21H11L11,57.86a2,2,0,0,0-.05-.35c-.09-.37-.16-.72-.28-1.1a7.66,7.66,0,0,0-.39-1,2.61,2.61,0,0,0-1-1.14,2.75,2.75,0,0,0-1.46-.41H7.7a.25.25,0,0,0-.12,0,.68.68,0,0,0-.37.09.44.44,0,0,0-.25.28.89.89,0,0,0,0,.3,1.72,1.72,0,0,0,0,.33v10a1.05,1.05,0,0,0,.07.4.52.52,0,0,0,.26.27,1.66,1.66,0,0,0,.55.17h.86l.47,0v.84H2.58v-.84L4,65.6s.07,0,.11,0h.1a.78.78,0,0,0,.23,0l.23-.07a.6.6,0,0,0,.17-.28,1,1,0,0,0,0-.35V54.37a1,1,0,0,0,0-.12A.45.45,0,0,0,4.58,54a.63.63,0,0,0-.35-.09.32.32,0,0,0-.14,0H3.93a2.63,2.63,0,0,0-1.35.34,3.61,3.61,0,0,0-1,1,2.4,2.4,0,0,0-.31.62c-.09.26-.16.52-.23.77A3.6,3.6,0,0,0,1,57c0,.17-.07.31-.09.45s0,.09,0,.16a.41.41,0,0,0,0,.16.68.68,0,0,0,0,.19.5.5,0,0,0-.05.16H0L.35,53Z"></path>
      <path fill="#f6b124" d="M62.28,61.53l.77,0-.35,5H51.18v-.84h.56s.07,0,.12,0a.81.81,0,0,1,.11,0h.14l.19,0a1.65,1.65,0,0,0,.58-.14.65.65,0,0,0,.35-.42.75.75,0,0,1,0-.21V54.6a.62.62,0,0,1,0-.19A.62.62,0,0,0,53,54a1.16,1.16,0,0,0-.42-.12c-.23,0-.49,0-.69,0H51.2V53H62.49l.25,4.79H62c-.3-1.77-.77-2.89-1.39-3.31a6.93,6.93,0,0,0-3.49-.62l-.4,0a3.87,3.87,0,0,0-1.05.12c-.21,0-.32.28-.32.63v4.49H56a2.42,2.42,0,0,0,1.82-.56,3,3,0,0,0,.67-2l.84,0v6.16h-.84a3.29,3.29,0,0,0-.51-2A1.86,1.86,0,0,0,56.32,60h-1v5.19s0,0,0,.09l.07.09.09.12a1.11,1.11,0,0,0,.35.14l.35,0h.17a2.4,2.4,0,0,0,.6.07c.19,0,.4,0,.61,0s.48,0,.74,0a4.37,4.37,0,0,0,.79-.07,2.65,2.65,0,0,0,2.09-1.07,6.57,6.57,0,0,0,.93-2.25c0-.05,0-.07,0-.12a1,1,0,0,0,0-.12.66.66,0,0,0,.05-.23C62.23,61.72,62.25,61.63,62.28,61.53Z"></path>
      <path fill="#f6b124" d="M38.78,2.35a1.15,1.15,0,0,1-.35-.84,1.18,1.18,0,0,1,.35-.84,1.14,1.14,0,0,1,.84-.34,1.17,1.17,0,0,1,.84.34,1.15,1.15,0,0,1,.32.84,1.12,1.12,0,0,1-.32.84,1.18,1.18,0,0,1-.84.35A1.15,1.15,0,0,1,38.78,2.35Z"></path>
      <path fill="#f6b124" d="M9.17,2.47a1.24,1.24,0,0,1-.35-.89A1.14,1.14,0,0,1,9.17.74,1.11,1.11,0,0,1,10,.37a1.12,1.12,0,0,1,.86.37,1.18,1.18,0,0,1,.35.84,1.28,1.28,0,0,1-.35.89,1.17,1.17,0,0,1-.86.34A1.15,1.15,0,0,1,9.17,2.47Z"></path>
      <path fill="#f6b124" d="M12,3.89h3v9.84H5.4a4.4,4.4,0,0,1-1.82-.38,4.39,4.39,0,0,1-1.49-1,4.49,4.49,0,0,1-1-1.49A4.67,4.67,0,0,1,.72,9.05V8.58a4.9,4.9,0,0,1,.35-1.81,4.59,4.59,0,0,1,1-1.49,4.44,4.44,0,0,1,1.49-1A4.74,4.74,0,0,1,5.4,3.89H8.28V7.42H6.61a1.16,1.16,0,0,0-.33-.81,1.21,1.21,0,0,0-.84-.33H5.28A1.64,1.64,0,0,0,3.65,7.91V9.42a2,2,0,0,0,.17.75,2.06,2.06,0,0,0,.44.62,2,2,0,0,0,.6.42,1.83,1.83,0,0,0,.75.17H12Z"></path>
      <path fill="#f6b124" d="M23.5,14.91a1.15,1.15,0,0,1,.35.89,1.23,1.23,0,0,1-.35.86,1.36,1.36,0,0,1-1.75,0,1.23,1.23,0,0,1-.35-.86,1.15,1.15,0,0,1,.35-.89,1.27,1.27,0,0,1,1.75,0Z"></path>
      <polygon fill="#f6b124" points="17.17 13.77 17.17 0.68 20.05 0.68 20.05 11.4 23.31 11.4 23.31 3.88 26.22 3.88 26.22 13.77 17.17 13.77"></polygon>
      <path fill="#f6b124" d="M26.24,14.91a1.07,1.07,0,0,1,.37.89,1.13,1.13,0,0,1-.37.86,1.25,1.25,0,0,1-.86.32,1.31,1.31,0,0,1-.88-.32,1.22,1.22,0,0,1-.38-.86,1.14,1.14,0,0,1,.38-.89,1.24,1.24,0,0,1,.88-.35A1.19,1.19,0,0,1,26.24,14.91Z"></path>
      <path fill="#f6b124" d="M6.44,2.47a1.27,1.27,0,0,1-.34-.89A1.17,1.17,0,0,1,6.44.74,1.14,1.14,0,0,1,7.3.37a1.17,1.17,0,0,1,.87.37,1.24,1.24,0,0,1,.32.84,1.35,1.35,0,0,1-.32.89,1.22,1.22,0,0,1-.87.34A1.18,1.18,0,0,1,6.44,2.47Z"></path>
      <path fill="#f6b124" d="M68.26.58V11.4H65.79V.6H62.86V11.4H60.63v0h-.8V3.84h-2.9v7.58h-2V3.84H52v7.58H49.9V3.84H47v7.58H46.2l-.21,0H43.71V3.86h-5a3.43,3.43,0,0,0-1.4.28,3.58,3.58,0,0,0-1.09.77A4.15,4.15,0,0,0,35.45,6a3.46,3.46,0,0,0-.25,1.34v4h-3V3.84h-3V14.19a3,3,0,0,1-.37,1.51,2.6,2.6,0,0,1-.58.56c-.05,0-.05,0-.05,0s0,0,.05,0a5,5,0,0,0,1.25.14,2.81,2.81,0,0,0,1.77-.58,2.27,2.27,0,0,0,.88-1.6.83.83,0,0,1,0-.26,1.45,1.45,0,0,0,0-.28h39V.58ZM40.85,11.4H38.11V7.68a1.37,1.37,0,0,1,.44-1,1.44,1.44,0,0,1,1.07-.42h1.23Z"></path>
      <path fill="#fff" d="M82.87,3.7H85.8V11c0,1.49-.12,3.11-1.24,4.14a5.33,5.33,0,0,1-3.65,1.28,4.17,4.17,0,0,1-4.35-4.31V3.7h3.82V4.79c-.75,0-1.33.37-1.33,1.07V10.7a12.84,12.84,0,0,0,0,2,1.87,1.87,0,0,0,3.35.62,2.9,2.9,0,0,0,.42-1.69c.11-1.38-.05-2.82,0-4.24Z"></path>
      <path fill="#fff" d="M108.88,14.91a1.15,1.15,0,0,1,.34.89,1.22,1.22,0,0,1-.34.86A1.34,1.34,0,0,1,108,17a1.29,1.29,0,0,1-.88-.32,1.13,1.13,0,0,1-.37-.86,1.07,1.07,0,0,1,.37-.89,1.22,1.22,0,0,1,.88-.35A1.27,1.27,0,0,1,108.88,14.91Z"></path>
      <path fill="#fff" d="M80,1.35a1.22,1.22,0,0,1,2.44,0,1.22,1.22,0,1,1-2.44,0Z"></path>
      <rect fill="#fff" x="111.32" y="0.67" width="2.88" height="13.12"></rect>
      <path fill="#fff" d="M100,2.09a1.17,1.17,0,0,1-.32-.86A1.14,1.14,0,0,1,100,.37,1.22,1.22,0,0,1,100.9,0a1.25,1.25,0,0,1,.86.37,1.16,1.16,0,0,1,.35.86,1.2,1.2,0,0,1-1.21,1.21A1.16,1.16,0,0,1,100,2.09Z"></path>
      <path fill="#fff" d="M96.55,8c0-1.33,0-2.75,0-4.21H91.43A3.37,3.37,0,0,0,90.17,4a3.8,3.8,0,0,0-1,.66,3.22,3.22,0,0,0-.69.93,2.7,2.7,0,0,0-.26,1.16v7h5.58v.37a4.26,4.26,0,0,1-.14.93,2.17,2.17,0,0,1-.3.61,1.08,1.08,0,0,1-.32.37,1.54,1.54,0,0,1-.31.21s0,0,0,0a.13.13,0,0,0,.09,0,6.81,6.81,0,0,0,1.14.12,2.37,2.37,0,0,0,1.72-.63,2.82,2.82,0,0,0,.87-1.65,3.6,3.6,0,0,0,.11-1c0-.32,0-.67,0-1C96.57,10.72,96.55,9.33,96.55,8Zm-2.84,3.44H91.05v-4a1,1,0,0,1,.38-.82,1.22,1.22,0,0,1,.86-.32h1.42Z"></path>
      <path fill="#fff" d="M106.11,14.91a1.15,1.15,0,0,1,.35.89,1.23,1.23,0,0,1-.35.86,1.25,1.25,0,0,1-.86.32,1.3,1.3,0,0,1-.89-.32,1.23,1.23,0,0,1-.35-.86,1.15,1.15,0,0,1,.35-.89,1.23,1.23,0,0,1,.89-.35A1.19,1.19,0,0,1,106.11,14.91Z"></path>
      <path fill="#fff" d="M102.5,13.77a1.37,1.37,0,0,1,0,.28.83.83,0,0,0,0,.26,2.28,2.28,0,0,1-.9,1.6,2.9,2.9,0,0,1-1.77.56c-.21,0-.42,0-.63,0l-.6-.1s0,0,0,0,0,0,0,0l.28-.21a1.17,1.17,0,0,0,.3-.37,2.88,2.88,0,0,0,.25-.58,4.57,4.57,0,0,0,.12-.91V4h3v7.44h1.26v0h2.23V3.89h2.89v9.88Z"></path>
      <path fill="#fff" d="M119.39,12.28c0,.33,0,.65,0,1a4.15,4.15,0,0,1,0,1,2.39,2.39,0,0,1-.93,1.63,3,3,0,0,1-1.81.56,5.82,5.82,0,0,1-.59,0l-.6-.1s0,0,0,0,0,0,0,0,.16-.11.28-.21a1.33,1.33,0,0,0,.3-.37,2.87,2.87,0,0,0,.26-.58,9.1,9.1,0,0,0,.11-.91V3.86h3Z"></path>
      <path fill="#fff" d="M144.59,5a5.25,5.25,0,0,0-1.35-.91,4.34,4.34,0,0,0-1.63-.32h-5a2.84,2.84,0,0,0-1.42.37,4.17,4.17,0,0,0-1.16.93,4.05,4.05,0,0,0-.77,1.19A3,3,0,0,0,133,7.4v4h-2.84V3.89h-5.11a3.75,3.75,0,0,0-1.26.23,3.55,3.55,0,0,0-1,.65,3.06,3.06,0,0,0-.69,1,2.68,2.68,0,0,0-.26,1.17v6.88h5.56v.35a4.36,4.36,0,0,1-.14.93,4,4,0,0,1-.28.61,1.4,1.4,0,0,1-.35.37l-.28.21s0,.09.05.09.37.07.58.09a3.38,3.38,0,0,0,.54,0,2.53,2.53,0,0,0,1.74-.61,2.81,2.81,0,0,0,.86-1.65.39.39,0,0,0,0-.21v-.21h15.68V8.07a4.09,4.09,0,0,0-.33-1.7A4.29,4.29,0,0,0,144.59,5Zm-17.27,6.4h-2.63V7.54a1.07,1.07,0,0,1,.38-.84,1.21,1.21,0,0,1,.83-.33h1.42Zm10.87,0H136V7.63a1.5,1.5,0,0,1,.51-1.19A2,2,0,0,1,137.75,6h.44Zm4.56,0h-2.24V6H141a2.11,2.11,0,0,1,1.28.44,1.53,1.53,0,0,1,.51,1.19Z"></path>
      <path fill="#fff" d="M163.41,14.87a1.2,1.2,0,0,1,.32.83,1.31,1.31,0,0,1-.32.89,1.23,1.23,0,0,1-.86.35,1.2,1.2,0,0,1-.87-.35,1.24,1.24,0,0,1-.34-.89,1.13,1.13,0,0,1,.34-.83,1.16,1.16,0,0,1,.87-.35A1.19,1.19,0,0,1,163.41,14.87Z"></path>
      <path fill="#fff" d="M168.36,3.79V11.4h-2.93V3.89h-2.88V11.4h-2.84V3.89h-5.14a3.71,3.71,0,0,0-1.26.23,3.54,3.54,0,0,0-1,.65,2.45,2.45,0,0,0-.7,1,2.68,2.68,0,0,0-.26,1.17v6.88h5.56v.35a3.32,3.32,0,0,1-.16.93,1.82,1.82,0,0,1-.28.61,1,1,0,0,1-.33.37,2.09,2.09,0,0,1-.3.21s0,.09.05.09c.21,0,.39.07.58.09a3.51,3.51,0,0,0,.56,0,2.48,2.48,0,0,0,1.72-.61,2.83,2.83,0,0,0,.88-1.65.76.76,0,0,0,0-.21v-.21h11.68v-10ZM156.85,11.4h-2.63V7.54a1.11,1.11,0,0,1,.35-.84,1.28,1.28,0,0,1,.83-.33h1.45Z"></path>
      <path fill="#fff" d="M169,2.33a1.26,1.26,0,0,1-.33-.86A1.27,1.27,0,0,1,169,.6a1.18,1.18,0,0,1,.86-.34,1.18,1.18,0,0,1,1.23,1.21,1.19,1.19,0,0,1-.35.86,1.15,1.15,0,0,1-.88.37A1.14,1.14,0,0,1,169,2.33Z"></path>
      <path fill="#fff" d="M166.13,14.87a1.09,1.09,0,0,1,.37.83,1.23,1.23,0,0,1-1.23,1.24,1.23,1.23,0,0,1-.86-.35,1.21,1.21,0,0,1-.35-.89,1.1,1.1,0,0,1,.35-.83,1.19,1.19,0,0,1,.86-.35A1.14,1.14,0,0,1,166.13,14.87Z"></path>
    </g>
  </g>
</svg>
