<svg xmlns="http://www.w3.org/2000/svg" viewBox="0 0 2560 1918.98">
  <path fill="#4285f4" d="M0,1760.17V495.48c5.9-3.15,9.32,1.64,13.05,4.42q90.44,67.4,180.54,135.24,187.67,140.7,375.32,281.43c4.5,3.37,9.53,6.17,12.91,10.93,1,1.6.81,3.34.7,5.1q0,487,0,974c0,13.48,1.63,12.41-12.16,12.41H159.59a34.07,34.07,0,0,0-9.6-1c-31.4-2.88-58.65-15.91-83.22-34.89-30.4-23.46-50.07-54.24-61.25-90.85C2.29,1781.68,3.29,1770.6,0,1760.17Z"></path>
  
  <path fill="#fbbc04" d="M1978,175.26c2.25-1.92,4.41-4,6.77-5.75q76.86-57.72,153.74-115.4c34.79-26.22,73.3-43.72,116.32-51.26,5.81-1,12,.46,17.43-2.85h50c10.37,2.12,21.06.86,31.46,3.16a265.45,265.45,0,0,1,132.94,72.93,253.44,253.44,0,0,1,69.14,126.08c3.43,15.36,3.39,31,3.24,46.65V490.49c0,1.08,0,2.2,0,3.28-1.25,6.72-7.16,9.3-11.83,12.81Q2337.61,663.83,2128,820.92q-67.5,50.57-134.93,101.21c-2.92,2.2-5.71,4.6-9,6.26-4.19,2.13-7,1.17-8.07-3.71s-.74-10-.74-15q0-358,0-716C1975.24,187.49,1974.37,181,1978,175.26Z"></path>
  
  <path fill="#c5221f" d="M289.77,0c6,3.37,12.85,2.29,19.25,3.46,37.84,7,72.75,21,103.65,43.74,56.19,41.3,111.76,83.44,167.58,125.25a8.46,8.46,0,0,1,1.27,1.5c4.13,5.94,3.25,12.74,3.25,19.35q.06,210.27,0,420.55,0,148.35-.15,296.69c0,5.68,2.74,12.86-5,16.44-12.39-7.81-23.66-17.14-35.35-25.9Q277.2,700.95,10.19,500.77c-3-2.27-5.44-6.16-10.19-5.29V241.75c2.28-27.23,7.17-53.84,17.78-79.25C48.53,88.86,102.17,39.55,176.61,11.91,196.45,4.54,216.94,1.54,237.81,0Z"></path>
  
  <path fill="#fee9ab" d="M2560,495.48c-.62-.05-1.24-.13-1.86-.23q-.06-113.86-.12-227.72c0-7.31.2-14.63.32-21.94a4.91,4.91,0,0,1,1.66.15Z"></path>
  
  <path fill="#ea4335" d="M584,931.43l-1.8-1.54L579.61,927a5.06,5.06,0,0,0,2-4.34q0-3.5,0-7V183.93c0-3.33-.05-6.65-.07-10,23.23,17.22,46.54,34.34,69.68,51.68q310.74,232.9,621.42,465.87c1.6,1.2,3.25,2.34,4.75,3.65,2.09,1.81,4,1.87,6.18.09s4.25-3.21,6.38-4.8q339.49-254.54,679-509.06c2.91-2.18,5.51-4.84,9-6.12.13,4.66.37,9.31.37,14q0,362.58,0,725.17c0,5,.2,10,.31,15,.39.72.17,1.2-.58,1.47-4.18,1.49-7.26,4.64-10.7,7.21q-337.5,253-674.95,506.06c-1.33,1-2.68,2-4,3-9.36,6.87-6.57,6.94-15.73.07q-169-126.6-337.88-253.29Q763.09,1065.08,591.35,936.35C589,934.58,586.42,933.07,584,931.43Z"></path>
  
  <path fill="#34a853" d="M1978.09,930.83a3.9,3.9,0,0,0,.58-1.47c19.39-12.92,37.55-27.51,56.17-41.47Q2294.49,693.36,2554,498.67c1.06-.79,2.21-1.47,3.31-2.19,1.17,3.91.64,7.94.64,11.91q0,620.47,0,1241c0,2.32.24,4.64.37,7-1.92,70.49-58.77,147-147.33,159.9l-12.83,1.88c-5.32,0-10.64-.1-16-.1H1986.55c-2.66,0-5.33-.08-8-.13-.11-4.32-.32-8.63-.32-12.95q0-479.06,0-958.12C1978.22,941.47,1978.14,936.15,1978.09,930.83Z"></path>
</svg>
