<svg xmlns="http://www.w3.org/2000/svg" viewBox="0 0 278.44 76.14">
  <g id="Layer_2" data-name="Layer 2">
    <g id="Isolation_Mode" data-name="Isolation Mode">
      <path fill="#f6b124" fill-rule="evenodd" d="M55.81,59.23l.46,5.65C36.6,78.53,16.67,79.1,6.29,70.2-8.72,57.33,2,16.66,51.15.56,49,1.4,3.53,19.87,4.25,48.17c.63,24.9,31.33,24.53,51.56,11.06Z"/>
      <path fill="#1e2758" d="M75.74,48A95.8,95.8,0,0,1,57.45,64.25a37.75,37.75,0,0,0-.55-5.54A42.13,42.13,0,0,0,68.49,47.39c11.45-17.17-1.17-20.76-1.17-20.76l-4.18,8s-7.59.68-14.61-7.69l8-4.67S32,18.25,12.72,41c.24-.53,8.2-17.57,35.53-30.85,19.39-9.41,29.11-8,32.15-7a6.55,6.55,0,0,1,.64.22h0l.42.18.12-.1h0c.91-.81,5.82-4.73,11.78-3,0,0-.77,4.38-3.49,7C90.24,7.72,101.34,17.84,75.74,48Z"/>
      <path fill="#1e2758" d="M106.59,48.71v-1a.11.11,0,0,0,.1,0h.12l.66-.1a3.55,3.55,0,0,0,.64-.17,1.33,1.33,0,0,0,.77-.74,5,5,0,0,0,.32-1.15c0-.24,0-.47,0-.7s0-.44,0-.62V34.34a1.49,1.49,0,0,0-.68-.53,2.93,2.93,0,0,0-.88-.17h-1.09v-1h4.66l8.86,12h0V36.16a2.87,2.87,0,0,0-.57-1.93,3.16,3.16,0,0,0-2-.61v-1h6.28v1a2.73,2.73,0,0,0-2.08.74,4,4,0,0,0-.51,2.14V49h-.87l-10-13.66h-.05V44.8a12.19,12.19,0,0,0,.07,1.24,2.06,2.06,0,0,0,.51,1.1,2,2,0,0,0,.44.27,2.15,2.15,0,0,0,.48.18l.28,0,.3,0a1.53,1.53,0,0,0,.3,0l.28,0v1Z"/>
      <path fill="#1e2758" d="M125.05,33.6v-1h13.43l.31,5.72h-.93c-.38-2.12-.93-3.43-1.68-3.93s-2.13-.76-4.17-.76l-.45,0a5.72,5.72,0,0,0-1.25.13c-.27.08-.4.33-.4.76v5.36h.8a2.93,2.93,0,0,0,2.17-.68,3.5,3.5,0,0,0,.8-2.36l1,0v7.34h-1a4,4,0,0,0-.61-2.35,2.18,2.18,0,0,0-1.93-.88h-1.23v6a1.09,1.09,0,0,0,0,.2.36.36,0,0,0,0,.11.27.27,0,0,0,.06.12l.11.14a.81.81,0,0,0,.42.16l.43,0h.18a3.51,3.51,0,0,0,.71.08l.72,0,.9,0a4.9,4.9,0,0,0,.93-.1,3.18,3.18,0,0,0,2.52-1.27,8.54,8.54,0,0,0,1.1-2.68l0-.13,0-.13q0-.13.06-.3c0-.1.05-.21.08-.33l.91,0-.42,6H125v-1h.67a.31.31,0,0,0,.13,0,.35.35,0,0,0,.14,0h.19a.75.75,0,0,0,.21,0,1.94,1.94,0,0,0,.68-.16.68.68,0,0,0,.41-.51,1.57,1.57,0,0,0,0-.23c0-.09,0-.17,0-.26V34.76c0-.08,0-.15,0-.24a1.85,1.85,0,0,1,0-.23.61.61,0,0,0-.24-.46,1,1,0,0,0-.5-.14q-.42,0-.84-.06h-.83Z"/>
      <path fill="#1e2758" d="M140.6,32.59h6.25v1l-.44,0-.43,0-.44,0-.43.07s0,0-.06,0,0,0-.05.05a.37.37,0,0,0-.13.15.75.75,0,0,0,0,.23s0,.05,0,.12,0,.13,0,.19l0,0v.05a1.31,1.31,0,0,0,0,.15.19.19,0,0,0,0,.09l3.21,10.05,2.7-9L150.26,34a.56.56,0,0,0-.33-.27,3.3,3.3,0,0,0-.49-.09l-.1,0h-.12l-.08,0H149l-.7,0v-1h6.45v1l-.76,0a4.78,4.78,0,0,0-.77.08l-.14.07-.09,0a.2.2,0,0,0-.07.06l0,.08a1,1,0,0,0,0,.1.72.72,0,0,0,0,.14,1.7,1.7,0,0,0,.08.51c.05.17.11.34.17.52a.11.11,0,0,0,0,.05l0,.08,3,9.46,2.61-8.88a1.22,1.22,0,0,0,.05-.17c0-.06,0-.13,0-.19a.19.19,0,0,0,0-.09s0-.06,0-.08a2,2,0,0,0,.06-.3,1.38,1.38,0,0,0,0-.26.93.93,0,0,0-.46-.92,2.85,2.85,0,0,0-1-.27h-.64v-1h5.42v1a1.92,1.92,0,0,0-1.65.79,6.37,6.37,0,0,0-.72,1.69.62.62,0,0,0,0,.1l0,.1L156,49h-.89l-3.66-11.29L148.12,49h-.91l-4.8-14.46-.09-.22a1.29,1.29,0,0,0-.09-.2.71.71,0,0,0-.38-.44,3.12,3.12,0,0,0-.71-.1h-.23l-.31,0Z"/>
      <path fill="#1e2758" d="M169.21,48.71v-1h.49a3.68,3.68,0,0,0,.58-.06,4.48,4.48,0,0,0,1-.21c.3-.09.44-.24.44-.43V34.31a.52.52,0,0,0-.41-.51,3.68,3.68,0,0,0-.91-.16h-1a.65.65,0,0,1-.2,0v-1h7.41v1l-.41,0h-.53l-.59,0a2.07,2.07,0,0,0-.41,0,.58.58,0,0,0-.36.19.6.6,0,0,0-.17.37.05.05,0,0,0,0,0V39.8h7.46V34.2a.41.41,0,0,0-.13-.29.58.58,0,0,0-.3-.18,2.7,2.7,0,0,0-.44-.07l-.58,0-.26,0h-.75v-1h7.39v1l-.3,0h-1a4.29,4.29,0,0,0-.7.08.81.81,0,0,0-.38.14.51.51,0,0,0-.11.37V47a.5.5,0,0,0,.19.4,1.16,1.16,0,0,0,.46.22,3.82,3.82,0,0,0,.59.09c.2,0,.4,0,.61,0h.3l.3,0v1h-7.38v-1h1.14a3.68,3.68,0,0,0,.9-.15.62.62,0,0,0,.43-.63l0-6h-7.46V47a.51.51,0,0,0,.18.39.74.74,0,0,0,.4.21,2.51,2.51,0,0,0,.39,0,4.61,4.61,0,0,0,.53,0l.56,0h.4v1Z"/>
      <path fill="#1e2758" d="M203.51,40.65a8,8,0,0,1-.12,1.37,9,9,0,0,1-.37,1.44,9.71,9.71,0,0,1-2.48,3.84A6.42,6.42,0,0,1,195.86,49a6.88,6.88,0,0,1-5.59-2.56,8.89,8.89,0,0,1-2.11-5.81,8.05,8.05,0,0,1,.12-1.35,10.17,10.17,0,0,1,.37-1.44A10,10,0,0,1,191.14,34a6.39,6.39,0,0,1,4.68-1.75,6.87,6.87,0,0,1,5.59,2.58,9,9,0,0,1,2.1,5.81Zm-2.85,0c0-.39,0-.86,0-1.42a10.88,10.88,0,0,0-.24-1.73A7.18,7.18,0,0,0,199,34.6a3.77,3.77,0,0,0-3.21-1.31A3.67,3.67,0,0,0,192.33,35a9.47,9.47,0,0,0-1.22,3.84c0,.29-.06.59-.07.9s0,.61,0,.9,0,.89,0,1.44a9.75,9.75,0,0,0,.25,1.73,7.12,7.12,0,0,0,1.34,2.9,3.78,3.78,0,0,0,3.21,1.32,3.68,3.68,0,0,0,3.48-1.74,9.64,9.64,0,0,0,1.23-3.84c0-.3.05-.6.07-.9s0-.61,0-.91Z"/>
      <path fill="#1e2758" d="M205.14,32.59h8.13l.6,0a5.54,5.54,0,0,1,.6.06,6.87,6.87,0,0,1,3,1.11,3.11,3.11,0,0,1,1.35,2.78,3.11,3.11,0,0,1-1.37,2.81,6.92,6.92,0,0,1-3,1.09l-.41,0-.4,0v0a3.91,3.91,0,0,1,2.25.92A4.26,4.26,0,0,1,217,43.62l.38,1.43c0,.07,0,.14,0,.2s0,.12,0,.2a.11.11,0,0,0,0,0,.15.15,0,0,1,0,.06,7.9,7.9,0,0,0,.22.87,2.88,2.88,0,0,0,.4.78,2.41,2.41,0,0,0,.28.14.71.71,0,0,0,.24,0,.55.55,0,0,0,.51-.37,2.84,2.84,0,0,0,.25-.81,4.51,4.51,0,0,0,.08-.6c0-.18,0-.32,0-.43l.91,0v.27a6.33,6.33,0,0,1-.6,2.48A2.18,2.18,0,0,1,217.62,49l-.34,0-.35-.08a3.83,3.83,0,0,1-.65-.3,1.62,1.62,0,0,1-.49-.44,3.83,3.83,0,0,1-.47-.87,5.26,5.26,0,0,1-.27-1c0-.15,0-.29,0-.42a2.48,2.48,0,0,1,0-.38,2.34,2.34,0,0,1,0-.26l0-.23a.41.41,0,0,0,0-.12.53.53,0,0,1,0-.13,6.32,6.32,0,0,0-.84-2.9q-.67-1-2.76-1.05h-1.25v5.7a3,3,0,0,0,.06.62.55.55,0,0,0,.46.4,2.05,2.05,0,0,0,.56.1h1a1.55,1.55,0,0,1,.31,0v1H205.1v-1H206a5.9,5.9,0,0,0,.74,0,1.33,1.33,0,0,0,.65-.27l.08-.1a.61.61,0,0,0,.05-.12.09.09,0,0,1,0-.05.06.06,0,0,0,0,0,1.16,1.16,0,0,0,0-.18l0-.18v-12a1.11,1.11,0,0,0,0-.19,1,1,0,0,0,0-.15c0-.06,0-.13-.05-.2a.63.63,0,0,0-.32-.38,1.43,1.43,0,0,0-.44-.09h-.09l0,0h-.09l-1.41-.06Zm4.91,2.32V39.8l.48.06h1.83l.42,0,.41,0,.41,0,.18,0,.18,0a3.69,3.69,0,0,0,.9-.31,2,2,0,0,0,.73-.63,2.12,2.12,0,0,0,.24-.5c.08-.2.14-.41.21-.64s.05-.29.06-.43a2.68,2.68,0,0,0,0-.39,4.09,4.09,0,0,0-.5-2.09,2.11,2.11,0,0,0-1.86-1l-1.21-.07-1.22,0h-.22l-.3,0-.35.07a.53.53,0,0,0-.21.09,1,1,0,0,0-.12.28,3.06,3.06,0,0,0,0,.32,1.24,1.24,0,0,0,0,.27v.22Z"/>
      <path fill="#1e2758" d="M221.48,48.71v-1a.64.64,0,0,0,.2,0h.25l.22,0h.25a5,5,0,0,0,.55,0,1.46,1.46,0,0,0,.43-.09c.29-.12.47-.26.51-.43a2.58,2.58,0,0,0,.07-.68V34.73c0-.1,0-.2,0-.28a1.31,1.31,0,0,0-.06-.27.66.66,0,0,0-.07-.15.49.49,0,0,0-.11-.14,1.35,1.35,0,0,0-.66-.24,5.77,5.77,0,0,0-.72,0h-.62a.82.82,0,0,1-.21,0v-1h7.37v1l-.91,0q-.45,0-.9.06a1.15,1.15,0,0,0-.35.15.9.9,0,0,0-.23.27.09.09,0,0,1,0,0l0,0,0,.37c0,.12,0,.25,0,.37v12a1.49,1.49,0,0,0,0,.21s0,0,0,0a.43.43,0,0,0,0,0l0,0a.24.24,0,0,0,.07.12.45.45,0,0,0,.09.1,1.2,1.2,0,0,0,.65.26,4.7,4.7,0,0,0,.75,0h.59a.58.58,0,0,1,.19,0v1Z"/>
      <path fill="#1e2758" d="M231.81,38.26h-.91l.4-5.67h11.07v.85L233.15,47.7h3.46a3.35,3.35,0,0,0,.55,0,4.93,4.93,0,0,0,.55,0c.32,0,.64-.1,1-.18a3.26,3.26,0,0,0,.87-.33,2.38,2.38,0,0,0,.9-.88,9,9,0,0,0,.5-1.13L241,45a.75.75,0,0,0,.05-.16,5,5,0,0,0,.19-.63,4.9,4.9,0,0,0,.13-.62l.12-.52a4.85,4.85,0,0,0,.08-.53l1,0-.4,6.12h-11.9v-.87l9.18-14.24h-3.06c-1.56,0-2.6.33-3.12.95A6.72,6.72,0,0,0,232,37.3c0,.17-.07.33-.1.48s-.08.33-.13.5Z"/>
      <path fill="#1e2758" d="M259.71,40.65a8,8,0,0,1-.12,1.37,10.17,10.17,0,0,1-.37,1.44,9.85,9.85,0,0,1-2.49,3.84A6.38,6.38,0,0,1,252.06,49a6.85,6.85,0,0,1-5.59-2.56,8.89,8.89,0,0,1-2.11-5.81,8.05,8.05,0,0,1,.12-1.35,9,9,0,0,1,.37-1.44A9.73,9.73,0,0,1,247.34,34,6.39,6.39,0,0,1,252,32.28a6.85,6.85,0,0,1,5.59,2.58,8.93,8.93,0,0,1,2.11,5.81Zm-2.86,0c0-.39,0-.86,0-1.42a9.89,9.89,0,0,0-.25-1.73,7.18,7.18,0,0,0-1.34-2.9A3.76,3.76,0,0,0,252,33.29,3.66,3.66,0,0,0,248.53,35a9.64,9.64,0,0,0-1.23,3.84q0,.43-.06.9c0,.3,0,.61,0,.9s0,.89,0,1.44a10.73,10.73,0,0,0,.24,1.73,7.25,7.25,0,0,0,1.34,2.9,3.78,3.78,0,0,0,3.22,1.32,3.68,3.68,0,0,0,3.48-1.74,9.64,9.64,0,0,0,1.23-3.84c0-.3.05-.6.06-.9s0-.61,0-.91Z"/>
      <path fill="#1e2758" d="M261.14,48.71v-1a.11.11,0,0,0,.1,0h.12l.66-.1a3.55,3.55,0,0,0,.64-.17,1.33,1.33,0,0,0,.77-.74,5,5,0,0,0,.32-1.15c0-.24,0-.47,0-.7s0-.44,0-.62V34.34a1.49,1.49,0,0,0-.68-.53,2.93,2.93,0,0,0-.88-.17h-1.09v-1h4.66l8.86,12h0V36.16a2.87,2.87,0,0,0-.57-1.93,3.16,3.16,0,0,0-2-.61v-1h6.28v1a2.73,2.73,0,0,0-2.08.74,4,4,0,0,0-.51,2.14V49H275L265,35.38h-.05V44.8A12.19,12.19,0,0,0,265,46a1.85,1.85,0,0,0,1.43,1.55l.28,0,.3,0a1.53,1.53,0,0,0,.3,0l.28,0v1Z"/>
      <path fill="#f6b124" d="M145.6,70.35a2.56,2.56,0,0,1-.83-.12c-.21-.07-.4-.32-.56-.72l-5-12.12h-.74L134,68.88v0a2.24,2.24,0,0,1-.72,1.07,1.94,1.94,0,0,1-1.21.37v.83H137v-.81l-.3,0c-.12,0-.21,0-.33,0a2.14,2.14,0,0,1-.88-.25,1,1,0,0,1-.37-1,.78.78,0,0,1,0-.21,2,2,0,0,0,.07-.23,1.72,1.72,0,0,1,.1-.26c0-.18.11-.35.16-.51s.12-.35.19-.51a2.26,2.26,0,0,0,.11-.26,2.16,2.16,0,0,1,.1-.25h5L142,69.51v0s0,0,0,0a1.21,1.21,0,0,1,.05.14v.1a.37.37,0,0,1-.12.25.42.42,0,0,1-.21.16h-.07l-.51.07c-.18,0-.35,0-.53,0h-.1a.11.11,0,0,0-.07,0h-.18l-.16,0v.83h5.74v-.81h-.16Zm-9.4-4.52,2.14-5.51,2.21,5.51Z"/>
      <path fill="#f6b124" d="M152.28,57.67h5.05v.84a1.69,1.69,0,0,0-1.44.42,4.18,4.18,0,0,0-.77,1.34l-4.35,11.19h-.7l-4.65-11.63-.14-.35-.14-.3a1.11,1.11,0,0,0-.56-.56,3.44,3.44,0,0,0-1.09-.09v-.86h5.81v.84l-.21,0h-.93a1.25,1.25,0,0,0-.53.12c-.17.07-.24.21-.24.46a.27.27,0,0,0,.05.16,2.46,2.46,0,0,1,.07.24v0s0,0,0,.05.05.12.07.16a.59.59,0,0,1,.05.14L151,68.44,153.77,61a.75.75,0,0,1,.07-.12.37.37,0,0,1,0-.14,1.46,1.46,0,0,0,.12-.33,1.08,1.08,0,0,0,.09-.32l.07-.28v-.28a.73.73,0,0,0-.37-.72,1.94,1.94,0,0,0-.79-.26,2.49,2.49,0,0,0-.37,0h-.35Z"/>
      <path fill="#f6b124" d="M131.23,68.58a4.87,4.87,0,0,1,0,.51,3.19,3.19,0,0,1-.21.68.48.48,0,0,1-.44.32.81.81,0,0,1-.19,0,1.27,1.27,0,0,1-.23-.12,2.06,2.06,0,0,1-.35-.65c-.07-.24-.14-.49-.19-.75v0a.12.12,0,0,1,0,0s0-.12,0-.16a.69.69,0,0,1-.05-.17l-.3-1.21a3.5,3.5,0,0,0-1-1.76,3.26,3.26,0,0,0-1.88-.77v0a1.38,1.38,0,0,0,.35,0l.33,0a5.86,5.86,0,0,0,2.55-.93,3,3,0,0,0,0-4.68,5.62,5.62,0,0,0-2.49-.93l-.51-.07-.51,0h-6.82v.84l1.19,0h.07s0,0,0,0h.07l.37.07a.55.55,0,0,1,.26.32.73.73,0,0,1,0,.16.25.25,0,0,1,0,.14s0,.1,0,.17V69.51s0,.12,0,.16a.32.32,0,0,1,0,.14v0l0,0a.19.19,0,0,1-.05.12.21.21,0,0,1,0,.09,1.09,1.09,0,0,1-.56.21,5.39,5.39,0,0,1-.6,0h-.77v.83h6.17v-.81a1.06,1.06,0,0,0-.26,0h-.37a2.69,2.69,0,0,1-.49,0,1.45,1.45,0,0,1-.47-.07c-.23-.07-.34-.18-.37-.34a2.18,2.18,0,0,1-.07-.52V64.6h1.07a2.72,2.72,0,0,1,2.31.89,5.4,5.4,0,0,1,.69,2.44s0,.07,0,.09v.12a.47.47,0,0,1,0,.18c0,.07,0,.14,0,.21s0,.21,0,.33,0,.23,0,.35a5.05,5.05,0,0,0,.21.81,3.83,3.83,0,0,0,.4.72,1.54,1.54,0,0,0,.42.38,3.17,3.17,0,0,0,.53.25l.3.07a1.58,1.58,0,0,0,.28,0,1.8,1.8,0,0,0,1.86-.95,5.49,5.49,0,0,0,.52-2.07v-.23l-.77,0A2.37,2.37,0,0,1,131.23,68.58Zm-5.63-4.84a2,2,0,0,0-.35,0h-1.54l-.42,0V59.41c0-.07,0-.14,0-.21a1.47,1.47,0,0,0,0-.27,1.34,1.34,0,0,1,.12-.24.5.5,0,0,1,.16-.07l.3-.07.26,0h.16c.35,0,.7,0,1,0s.67,0,1,.05a1.79,1.79,0,0,1,1.56.81,3.46,3.46,0,0,1,.42,1.75v.32c0,.12,0,.26-.07.38a4.11,4.11,0,0,1-.17.53,2.75,2.75,0,0,1-.2.42,2.08,2.08,0,0,1-.61.54,3,3,0,0,1-.77.25l-.14,0a.26.26,0,0,1-.16,0l-.33,0A2,2,0,0,0,125.6,63.74Z"/>
      <path fill="#f6b124" d="M182.78,66.09l-.4,5.09h-11v-.83H172a1.23,1.23,0,0,0,.32,0,1.94,1.94,0,0,0,.33,0c.35,0,.56-.14.6-.35a2.24,2.24,0,0,0,.1-.72v-10a.66.66,0,0,0,0-.23.36.36,0,0,0-.11-.21s0-.05-.05-.07l-.09-.07s0,0-.05,0h0l0,0-.41-.07h-.42a2.82,2.82,0,0,0-.4,0h-.42v-.86h6.19v.84l-.6,0a5.82,5.82,0,0,0-.59,0h-.18l-.28,0a.55.55,0,0,0-.26.14s0,0-.07.07a.25.25,0,0,0,0,.11s0,0,0,.05,0,0,0,0a.36.36,0,0,0,0,.14.34.34,0,0,0,0,.17V69.53a1.57,1.57,0,0,0,.12.45.58.58,0,0,0,.3.3,4.9,4.9,0,0,0,.54,0,3.43,3.43,0,0,0,.56.05h1l.47,0a4.91,4.91,0,0,0,1-.17,3.16,3.16,0,0,0,.9-.34A2,2,0,0,0,181,69a6.91,6.91,0,0,0,.47-1,1.13,1.13,0,0,1,.07-.18.78.78,0,0,1,.05-.14,5.52,5.52,0,0,0,.16-.54c0-.16.07-.35.11-.51a.87.87,0,0,0,.05-.28c0-.07,0-.16.05-.25Z"/>
      <path fill="#f6b124" d="M118,57.67l.3,5.21h-.76l-.07-.35a2.11,2.11,0,0,0,0-.35c-.09-.37-.16-.72-.28-1.09a8,8,0,0,0-.39-1,2.56,2.56,0,0,0-1-1.14,2.67,2.67,0,0,0-1.46-.42h-.12a.25.25,0,0,0-.12,0,.69.69,0,0,0-.37.1.4.4,0,0,0-.25.28.84.84,0,0,0,0,.3,1.62,1.62,0,0,0,0,.32v10a1.05,1.05,0,0,0,.07.4.49.49,0,0,0,.25.28,1.76,1.76,0,0,0,.56.16h.86l.47,0v.83H109.1v-.83l1.4-.07s.07,0,.11,0h.1a.56.56,0,0,0,.23,0l.23-.07a.58.58,0,0,0,.17-.27,1.08,1.08,0,0,0,0-.35V59a.75.75,0,0,0,0-.11.43.43,0,0,0-.26-.28.64.64,0,0,0-.35-.1.32.32,0,0,0-.14,0h-.16a2.64,2.64,0,0,0-1.35.35,3.6,3.6,0,0,0-1,1,2.63,2.63,0,0,0-.3.63c-.09.25-.16.51-.23.76a3.74,3.74,0,0,0-.12.45,4.31,4.31,0,0,0-.09.44c0,.05,0,.09,0,.16a.47.47,0,0,0,0,.16.68.68,0,0,0,0,.19.6.6,0,0,0-.05.16h-.72l.35-5.16Z"/>
      <path fill="#f6b124" d="M168.8,66.21l.76,0-.34,5H157.7v-.83h.56l.11,0,.12,0h.14c.07,0,.12,0,.19,0a1.45,1.45,0,0,0,.58-.14.64.64,0,0,0,.35-.41.75.75,0,0,1,0-.21V59.27a.55.55,0,0,1,0-.18.63.63,0,0,0-.19-.4,1,1,0,0,0-.42-.11,5.76,5.76,0,0,0-.7,0h-.72v-.86H169l.25,4.79h-.79c-.3-1.77-.77-2.88-1.39-3.3a6.8,6.8,0,0,0-3.49-.63l-.4,0a3.94,3.94,0,0,0-1.05.11c-.21.05-.32.28-.32.63v4.49h.67a2.38,2.38,0,0,0,1.82-.56,2.91,2.91,0,0,0,.67-2l.84,0v6.17H165a3.32,3.32,0,0,0-.51-2,1.86,1.86,0,0,0-1.63-.75h-1v5.19a.15.15,0,0,1,0,.1l.07.09.09.11a1.11,1.11,0,0,0,.35.14c.12,0,.24,0,.35,0h.16a3.17,3.17,0,0,0,.61.07l.6,0,.75,0a5.64,5.64,0,0,0,.79-.07,2.71,2.71,0,0,0,2.09-1.07,6.92,6.92,0,0,0,.93-2.26s0-.07,0-.12,0-.07,0-.11a.78.78,0,0,0,0-.23A2.29,2.29,0,0,1,168.8,66.21Z"/>
      <path fill="#f6b124" d="M145.3,7a1.19,1.19,0,0,1,.84-2,1.18,1.18,0,0,1,.84.35,1.12,1.12,0,0,1,.32.84A1.11,1.11,0,0,1,147,7a1.14,1.14,0,0,1-.84.35A1.11,1.11,0,0,1,145.3,7Z"/>
      <path fill="#f6b124" d="M115.69,7.14a1.23,1.23,0,0,1-.35-.88,1.11,1.11,0,0,1,.35-.84,1.07,1.07,0,0,1,.86-.37,1.09,1.09,0,0,1,.86.37,1.15,1.15,0,0,1,.35.84,1.27,1.27,0,0,1-.35.88,1.18,1.18,0,0,1-.86.35A1.16,1.16,0,0,1,115.69,7.14Z"/>
      <path fill="#f6b124" d="M118.52,8.56h3V18.4h-9.56a4.75,4.75,0,0,1-4.33-2.86,4.76,4.76,0,0,1-.35-1.82v-.46a4.91,4.91,0,0,1,.35-1.82,4.91,4.91,0,0,1,2.51-2.51,4.93,4.93,0,0,1,1.82-.37h2.88v3.53h-1.67a1.16,1.16,0,0,0-.33-.81A1.21,1.21,0,0,0,112,11h-.16a1.65,1.65,0,0,0-1.14.47,1.59,1.59,0,0,0-.49,1.16V14.1a2.09,2.09,0,0,0,.16.74,2.51,2.51,0,0,0,.45.63,2.46,2.46,0,0,0,.6.42,2,2,0,0,0,.75.16h6.39Z"/>
      <path fill="#f6b124" d="M130,19.59a1.14,1.14,0,0,1,.34.88,1.18,1.18,0,0,1-.34.86,1.26,1.26,0,0,1-.86.33,1.25,1.25,0,0,1-.89-.33,1.19,1.19,0,0,1-.35-.86,1.24,1.24,0,0,1,2.1-.88Z"/>
      <polygon fill="#f6b124" points="123.69 18.45 123.69 5.35 126.57 5.35 126.57 16.07 129.83 16.07 129.83 8.56 132.74 8.56 132.74 18.45 123.69 18.45"/>
      <path fill="#f6b124" d="M132.76,19.59a1.06,1.06,0,0,1,.37.88,1.1,1.1,0,0,1-.37.86,1.26,1.26,0,0,1-.86.33,1.31,1.31,0,0,1-.88-.33,1.18,1.18,0,0,1-.38-.86,1.13,1.13,0,0,1,.38-.88,1.2,1.2,0,0,1,.88-.35A1.15,1.15,0,0,1,132.76,19.59Z"/>
      <path fill="#f6b124" d="M113,7.14a1.27,1.27,0,0,1-.35-.88,1.15,1.15,0,0,1,.35-.84,1.1,1.1,0,0,1,.86-.37,1.14,1.14,0,0,1,.87.37,1.25,1.25,0,0,1,.32.84,1.4,1.4,0,0,1-.32.88,1.23,1.23,0,0,1-.87.35A1.19,1.19,0,0,1,113,7.14Z"/>
      <path fill="#f6b124" d="M174.78,5.26V16.07h-2.47V5.28h-2.93V16.07h-2.23v0h-.8V8.51h-2.9V16.1h-2V8.51h-2.88V16.1h-2.12V8.51h-2.86V16.1h-.84c-.07,0-.11,0-.21,0h-2.28V8.54h-5a3.6,3.6,0,0,0-1.4.27,3.76,3.76,0,0,0-1.09.77A4.31,4.31,0,0,0,142,10.7a3.48,3.48,0,0,0-.25,1.35v4h-3V8.51h-2.95V18.86a3.05,3.05,0,0,1-.37,1.52,2.86,2.86,0,0,1-.58.56s0,0,0,0,0,.05,0,.05a5.57,5.57,0,0,0,1.25.14,2.87,2.87,0,0,0,1.77-.58,2.32,2.32,0,0,0,.88-1.61.86.86,0,0,1,0-.26,1.47,1.47,0,0,0,0-.27h39V5.26ZM147.37,16.07h-2.74V12.35a1.37,1.37,0,0,1,.44-1,1.44,1.44,0,0,1,1.07-.42h1.23Z"/>
      <path fill="#1e2758" d="M189.39,8.37h2.93v7.26c0,1.49-.12,3.12-1.24,4.14a5.33,5.33,0,0,1-3.65,1.28,4.16,4.16,0,0,1-4.35-4.3V8.37h3.82v1.1c-.75,0-1.33.37-1.33,1.07v4.83a12.84,12.84,0,0,0,.05,2,1.82,1.82,0,0,0,2,1.42A1.89,1.89,0,0,0,189,18a3,3,0,0,0,.42-1.7c.11-1.37,0-2.82,0-4.24Z"/>
      <path fill="#1e2758" d="M215.39,19.59a1.11,1.11,0,0,1,.35.88,1.15,1.15,0,0,1-.35.86,1.3,1.3,0,0,1-.86.33,1.28,1.28,0,0,1-.88-.33,1.1,1.1,0,0,1-.37-.86,1.06,1.06,0,0,1,.37-.88,1.17,1.17,0,0,1,.88-.35A1.19,1.19,0,0,1,215.39,19.59Z"/>
      <path fill="#1e2758" d="M186.48,6a1.22,1.22,0,0,1,2.44,0,1.22,1.22,0,1,1-2.44,0Z"/>
      <rect fill="#1e2758" x="217.84" y="5.35" width="2.88" height="13.12"/>
      <path fill="#1e2758" d="M206.55,6.77a1.2,1.2,0,0,1-.32-.86,1.14,1.14,0,0,1,.32-.86,1.19,1.19,0,0,1,.87-.38,1.22,1.22,0,0,1,.86.38,1.15,1.15,0,0,1,.34.86,1.18,1.18,0,0,1-1.2,1.21A1.2,1.2,0,0,1,206.55,6.77Z"/>
      <path fill="#1e2758" d="M203.06,12.65c0-1.32,0-2.74,0-4.21H198a3.34,3.34,0,0,0-1.26.26,3.43,3.43,0,0,0-1.05.65,3.36,3.36,0,0,0-.69.93,2.7,2.7,0,0,0-.26,1.16v7h5.58v.37a4.46,4.46,0,0,1-.14.93,2.24,2.24,0,0,1-.3.6,1,1,0,0,1-.32.38,2.13,2.13,0,0,1-.31.21s0,0,0,0a.13.13,0,0,0,.09.05,6.74,6.74,0,0,0,1.14.11,2.36,2.36,0,0,0,1.72-.62,2.78,2.78,0,0,0,.86-1.66,3.23,3.23,0,0,0,.12-1c0-.33,0-.68,0-1C203.09,15.4,203.06,14,203.06,12.65Zm-2.83,3.45h-2.66v-4a1,1,0,0,1,.38-.81,1.23,1.23,0,0,1,.86-.33h1.42Z"/>
      <path fill="#1e2758" d="M212.63,19.59a1.14,1.14,0,0,1,.35.88,1.19,1.19,0,0,1-.35.86,1.26,1.26,0,0,1-.86.33,1.3,1.3,0,0,1-.89-.33,1.19,1.19,0,0,1-.35-.86,1.14,1.14,0,0,1,.35-.88,1.19,1.19,0,0,1,.89-.35A1.15,1.15,0,0,1,212.63,19.59Z"/>
      <path fill="#1e2758" d="M209,18.45a1.32,1.32,0,0,1,0,.27.86.86,0,0,0,0,.26,2.34,2.34,0,0,1-.9,1.61,2.89,2.89,0,0,1-1.77.55c-.21,0-.42,0-.63,0s-.42-.07-.6-.09,0,0,0-.05,0,0,0,0l.27-.21a1,1,0,0,0,.31-.38,2.88,2.88,0,0,0,.25-.58,4.47,4.47,0,0,0,.12-.91V8.65H209V16.1h1.26v0h2.23V8.56h2.89v9.89Z"/>
      <path fill="#1e2758" d="M225.91,17c0,.32,0,.65,0,1a4.16,4.16,0,0,1,0,1,2.41,2.41,0,0,1-.93,1.63,3,3,0,0,1-1.82.55,5.72,5.72,0,0,1-.58,0c-.21,0-.42-.07-.6-.09s0,0,0-.05,0,0,0,0l.28-.21a1.25,1.25,0,0,0,.3-.38,2.87,2.87,0,0,0,.26-.58,8.74,8.74,0,0,0,.11-.91V8.54h3Z"/>
      <path fill="#1e2758" d="M251.1,9.68a4.6,4.6,0,0,0-1.34-.91,4.16,4.16,0,0,0-1.63-.33h-5a2.81,2.81,0,0,0-1.42.37,4.21,4.21,0,0,0-1.16.94,3.88,3.88,0,0,0-.77,1.18,3,3,0,0,0-.28,1.14v4H236.7V8.56h-5.11a3.75,3.75,0,0,0-1.26.23,3.43,3.43,0,0,0-1.05.65,3.11,3.11,0,0,0-.69,1,2.63,2.63,0,0,0-.26,1.16v6.89h5.56v.34a4.46,4.46,0,0,1-.14.94,3.81,3.81,0,0,1-.28.6,1.4,1.4,0,0,1-.35.37,1.67,1.67,0,0,1-.28.21c0,.05,0,.09,0,.09l.58.1a5.06,5.06,0,0,0,.54,0,2.57,2.57,0,0,0,1.74-.6,2.89,2.89,0,0,0,.86-1.66.38.38,0,0,0,0-.2v-.21h15.68v-5.7a4.19,4.19,0,0,0-.33-1.7A4.06,4.06,0,0,0,251.1,9.68Zm-17.26,6.39h-2.63V12.21a1.1,1.1,0,0,1,.38-.84,1.2,1.2,0,0,1,.83-.32h1.42Zm10.87,0H242.5V12.3a1.48,1.48,0,0,1,.51-1.18,2,2,0,0,1,1.26-.44h.44Zm4.56,0H247V10.68h.45a2.06,2.06,0,0,1,1.27.44,1.48,1.48,0,0,1,.52,1.18Z"/>
      <path fill="#1e2758" d="M269.93,19.54a1.25,1.25,0,0,1,.32.84,1.32,1.32,0,0,1-.32.88,1.23,1.23,0,0,1-.87.35,1.19,1.19,0,0,1-.86-.35,1.21,1.21,0,0,1-.35-.88,1.15,1.15,0,0,1,.35-.84,1.19,1.19,0,0,1,.86-.35A1.23,1.23,0,0,1,269.93,19.54Z"/>
      <path fill="#1e2758" d="M274.88,8.47v7.6H272V8.56h-2.89v7.51h-2.83V8.56h-5.15a3.29,3.29,0,0,0-2.28.88,2.57,2.57,0,0,0-.69,1,2.63,2.63,0,0,0-.26,1.16v6.89h5.56v.34a3.39,3.39,0,0,1-.16.94,1.76,1.76,0,0,1-.28.6,1,1,0,0,1-.33.37,1.18,1.18,0,0,1-.3.21c0,.05,0,.09.05.09l.58.1a5.24,5.24,0,0,0,.56,0,2.52,2.52,0,0,0,1.72-.6,2.92,2.92,0,0,0,.88-1.66.8.8,0,0,0,.05-.2v-.21h11.68v-10Zm-11.52,7.6h-2.62V12.21a1.17,1.17,0,0,1,.34-.84,1.32,1.32,0,0,1,.84-.32h1.44Z"/>
      <path fill="#1e2758" d="M275.49,7a1.29,1.29,0,0,1,0-1.72,1.19,1.19,0,0,1,.86-.35,1.22,1.22,0,0,1,.88.35,1.23,1.23,0,0,1,0,1.72,1.13,1.13,0,0,1-.88.37A1.1,1.1,0,0,1,275.49,7Z"/>
      <path fill="#1e2758" d="M272.65,19.54a1.09,1.09,0,0,1,.37.84,1.15,1.15,0,0,1-.37.88,1.18,1.18,0,0,1-.86.35,1.23,1.23,0,0,1-.86-.35,1.17,1.17,0,0,1-.35-.88,1.11,1.11,0,0,1,.35-.84,1.23,1.23,0,0,1,.86-.35A1.18,1.18,0,0,1,272.65,19.54Z"/>
    </g>
  </g>
</svg>
