<svg xmlns="http://www.w3.org/2000/svg" viewBox="0 0 191.69 287.4"><g id="Layer_2" data-name="Layer 2"><g id="Layer_1-2" data-name="Layer 1"><path d="M95.93,111.69A15.18,15.18,0,0,1,84.51,107Q44.67,67.25,4.91,27.4C-1.71,20.74-1.55,11,4.86,4.64s16.14-6.2,23,.67Q60.36,37.65,92.64,70.17c2.79,2.83,4,2.36,6.53-.15,21.24-21.43,42.64-42.7,63.93-64.08C167.85,1.18,173.22-1.2,180,.7a15.82,15.82,0,0,1,8.63,24.58,29.85,29.85,0,0,1-3.24,3.61Q147,67.26,108.68,105.62C105.11,109.2,101.2,111.79,95.93,111.69Z"/><path d="M95.85,175.73a15.11,15.11,0,0,1,11.41,4.71q39.83,39.76,79.58,79.63a15.69,15.69,0,0,1-.07,22.76c-6.49,6.34-16.11,6.1-23-.8q-32.59-32.47-65-65.11c-2.32-2.34-3.41-2.31-5.72,0q-32.25,32.53-64.75,64.84c-7.13,7.11-16.72,7.48-23.32,1a15.77,15.77,0,0,1-1.31-21.36,34.61,34.61,0,0,1,2.54-2.74q38.61-38.63,77.21-77.25C86.85,178,90.75,175.61,95.85,175.73Z"/></g></g></svg>