<svg xmlns="http://www.w3.org/2000/svg" viewBox="0 0 10.48 14.34"><g id="Layer_2" data-name="Layer 2"><g id="Layer_1-2" data-name="Layer 1"><path d="M5.24,14.34a1.43,1.43,0,0,1-1-.43l-4-4a.73.73,0,0,1,0-1,.74.74,0,0,1,1.07,0c.61.6,1.22,1.21,1.82,1.82l2,2c.1.1.15.09.24,0l3.79-3.8a.75.75,0,0,1,1.17.94l-.13.14L6.35,13.85A1.52,1.52,0,0,1,5.24,14.34Z"/><path d="M5.26,0a1.45,1.45,0,0,1,1,.44l3.94,3.94a.75.75,0,1,1-1.06,1Q7.28,3.54,5.37,1.62c-.1-.1-.15-.11-.26,0L1.33,5.4a.75.75,0,1,1-1.11-1c.19-.21.4-.4.59-.6L4.12.49A1.51,1.51,0,0,1,5.26,0Z"/></g></g></svg>