<svg xmlns="http://www.w3.org/2000/svg" viewBox="0 0 752.64 768">
  <g>
    <path fill="#4285f4" d="M752.64,392.73a441.15,441.15,0,0,0-7-78.55H384V462.89H590.66c-9.07,47.83-36.3,88.33-77.15,115.55v96.7H638.14C710.75,608.12,752.64,509.67,752.64,392.73Z"></path>
    <path fill="#34a853" d="M384,768c103.68,0,190.6-34.21,254.14-92.86l-124.63-96.7c-34.21,23-77.84,37-129.51,37-99.84,0-184.67-67.38-215-158.14H41.19v99.14C104.38,681.78,233.89,768,384,768Z"></path>
    <path fill="#fbbc05" d="M169,457A223.92,223.92,0,0,1,169,311V211.9H41.19a380.13,380.13,0,0,0,0,344.2l99.49-77.5Z"></path>
    <path fill="#ea4335" d="M384,152.9c56.55,0,106.82,19.55,147,57.25l110-110C574.26,38.05,487.68,0,384,0,233.89,0,104.38,86.23,41.19,211.9L169,311C199.33,220.28,284.16,152.9,384,152.9Z"></path>
  </g>
</svg>
