<svg xmlns="http://www.w3.org/2000/svg" viewBox="0 0 93.4 76.14">
  <g id="Layer_2" data-name="Layer 2">
    <g id="Isolation_Mode" data-name="Isolation Mode">
      <path fill="#ffffff" fill-rule="evenodd" d="M55.81,59.23l.46,5.65C36.6,78.53,16.67,79.1,6.29,70.2-8.72,57.33,2,16.66,51.15.56,49,1.4,3.53,19.87,4.25,48.17c.63,24.9,31.33,24.53,51.56,11.06Z"/>
      <path fill="#1e2758" d="M75.74,48A95.8,95.8,0,0,1,57.45,64.25a37.75,37.75,0,0,0-.55-5.54A42.13,42.13,0,0,0,68.49,47.39c11.45-17.17-1.17-20.76-1.17-20.76l-4.18,8s-7.59.68-14.61-7.69l8-4.67S32,18.25,12.72,41c.24-.53,8.2-17.57,35.53-30.85,19.39-9.41,29.11-8,32.15-7a6.55,6.55,0,0,1,.64.22h0l.42.18.12-.1h0c.91-.81,5.82-4.73,11.78-3,0,0-.77,4.38-3.49,7C90.24,7.72,101.34,17.84,75.74,48Z"/>
    </g>
  </g>
</svg>