<svg xmlns="http://www.w3.org/2000/svg" viewBox="0 0 277.24 76.14">
  <g id="Layer_2" data-name="Layer 2">
    <g id="Isolation_Mode" data-name="Isolation Mode">
      <path fill="#f6b124" fill-rule="evenodd" d="M239.64,59.23l.47,5.65c-19.67,13.65-39.61,14.22-50,5.32-15-12.87-4.34-53.54,44.86-69.64-2.11.84-47.63,19.31-46.91,47.61.64,24.9,31.34,24.53,51.56,11.06Z"/>
      <path fill="#1e2758" d="M259.58,48a95.8,95.8,0,0,1-18.29,16.27,37.75,37.75,0,0,0-.55-5.54,42.13,42.13,0,0,0,11.59-11.32c11.45-17.17-1.17-20.76-1.17-20.76l-4.18,8s-7.59.68-14.61-7.69l8-4.67s-24.52-4-43.8,18.77c.24-.53,8.2-17.57,35.53-30.85,19.39-9.41,29.11-8,32.15-7a6.55,6.55,0,0,1,.64.22h0c.28.11.42.18.42.18l.12-.1h0c.91-.81,5.82-4.73,11.78-3,0,0-.77,4.38-3.49,7C274.08,7.72,285.18,17.84,259.58,48Z"/>
      <path fill="#1e2758" d="M.07,46.91v-1a.11.11,0,0,0,.1,0H.29L1,45.8a4.61,4.61,0,0,0,.64-.16,1.35,1.35,0,0,0,.77-.75,5,5,0,0,0,.32-1.15c0-.24,0-.47,0-.7s0-.44,0-.62V32.54A1.55,1.55,0,0,0,2.05,32a3.06,3.06,0,0,0-.89-.17H.07v-1H4.73l8.86,12h.05V34.36a2.87,2.87,0,0,0-.57-1.93,3.15,3.15,0,0,0-2-.61v-1h6.27v1a2.73,2.73,0,0,0-2.08.74,4,4,0,0,0-.51,2.14V47.24h-.87l-10-13.66H3.86V43a12.19,12.19,0,0,0,.07,1.24,2.06,2.06,0,0,0,.51,1.1,2,2,0,0,0,.44.27,2.34,2.34,0,0,0,.48.18l.28.05.3,0,.3,0,.28,0v1Z"/>
      <path fill="#1e2758" d="M18.53,31.8v-1H32l.31,5.72h-.93c-.38-2.12-.93-3.42-1.68-3.93s-2.13-.76-4.17-.76l-.45,0a5.72,5.72,0,0,0-1.25.13c-.26.08-.4.33-.4.76v5.36h.8a2.93,2.93,0,0,0,2.17-.68,3.5,3.5,0,0,0,.8-2.36l1,0v7.34h-1A4,4,0,0,0,26.55,40a2.18,2.18,0,0,0-1.93-.88H23.39v6a1.09,1.09,0,0,0,0,.2.36.36,0,0,0,0,.11.27.27,0,0,0,.06.12l.12.15a.82.82,0,0,0,.41.15l.43.05h.18a4.39,4.39,0,0,0,.72.07l.71,0,.9,0a4.9,4.9,0,0,0,.93-.1,3.16,3.16,0,0,0,2.52-1.27,8.54,8.54,0,0,0,1.1-2.68l0-.13,0-.13.06-.29c0-.11.05-.22.08-.34l.91,0-.42,6H18.48v-1h.67a.35.35,0,0,0,.14,0l.13,0h.19a.75.75,0,0,0,.21,0,1.94,1.94,0,0,0,.68-.16.64.64,0,0,0,.41-.51A1.57,1.57,0,0,0,21,45c0-.09,0-.17,0-.26V33c0-.07,0-.15,0-.24a1.77,1.77,0,0,1,0-.23A.63.63,0,0,0,20.7,32a1,1,0,0,0-.5-.14q-.42,0-.84-.06h-.83Z"/>
      <path fill="#1e2758" d="M34.08,30.79h6.25v1l-.43,0-.44,0-.43,0-.44.07s0,0-.06,0l-.05.05a.29.29,0,0,0-.12.15.53.53,0,0,0,0,.23l0,.12c0,.07,0,.13,0,.19l0,0v0c0,.06,0,.11.05.16a.19.19,0,0,0,0,.08l3.21,10,2.71-8.95-.67-1.88a.61.61,0,0,0-.34-.27,2.39,2.39,0,0,0-.49-.08.17.17,0,0,0-.1,0H42.7l-.08,0h-.1l-.69,0v-1h6.45v1l-.77,0a6.48,6.48,0,0,0-.77.08L46.6,32l-.09,0s0,0-.06.06a.56.56,0,0,0-.05.08,1,1,0,0,0,0,.1.72.72,0,0,0,0,.14,1.82,1.82,0,0,0,.08.52c0,.16.11.33.17.51a.11.11,0,0,0,0,0l0,.08,3,9.46,2.61-8.88a1.22,1.22,0,0,0,0-.17c0-.06,0-.13,0-.18a.3.3,0,0,0,0-.1s0,0,0-.08a2,2,0,0,0,.06-.3,1.38,1.38,0,0,0,0-.26.93.93,0,0,0-.46-.92,2.6,2.6,0,0,0-1-.26l-.21,0h-.43v-1h5.42v1a1.92,1.92,0,0,0-1.65.79,6.52,6.52,0,0,0-.72,1.69l0,.1,0,.1L49.48,47.24h-.89L44.93,36,41.6,47.24h-.91l-4.8-14.46-.09-.22a2,2,0,0,0-.09-.2.71.71,0,0,0-.38-.44,3.12,3.12,0,0,0-.71-.1h-.23l-.31,0Z"/>
      <path fill="#1e2758" d="M62.69,46.91v-1h.49a3.68,3.68,0,0,0,.58,0,5,5,0,0,0,1-.22c.3-.09.44-.24.44-.43V32.51a.52.52,0,0,0-.41-.51,3.68,3.68,0,0,0-.91-.16h-1a.65.65,0,0,1-.2,0v-1H70.1v1l-.41,0h-.52l-.6,0a2.07,2.07,0,0,0-.41,0,.58.58,0,0,0-.36.19.6.6,0,0,0-.17.37.05.05,0,0,0,0,.05V38h7.46V32.4a.41.41,0,0,0-.13-.29.58.58,0,0,0-.3-.18,2,2,0,0,0-.44-.06l-.58,0-.26,0H72.6v-1H80v1l-.3,0h-1a5.78,5.78,0,0,0-.7.08.86.86,0,0,0-.38.14.51.51,0,0,0-.11.37V45.17a.5.5,0,0,0,.19.4,1.16,1.16,0,0,0,.46.22,2.9,2.9,0,0,0,.59.09c.2,0,.4,0,.61,0h.3l.31,0v1H72.56v-1H73.7a3.26,3.26,0,0,0,.9-.15.63.63,0,0,0,.44-.63l0-6H67.6v6.07a.51.51,0,0,0,.18.39.76.76,0,0,0,.4.22l.39,0a4.61,4.61,0,0,0,.53,0l.56,0h.4v1Z"/>
      <path fill="#1e2758" d="M97,38.85a8,8,0,0,1-.13,1.37,9,9,0,0,1-.37,1.44A9.71,9.71,0,0,1,94,45.5a6.42,6.42,0,0,1-4.68,1.74,6.88,6.88,0,0,1-5.59-2.56,8.89,8.89,0,0,1-2.11-5.81,8.05,8.05,0,0,1,.12-1.35,12.22,12.22,0,0,1,.37-1.44,10,10,0,0,1,2.49-3.85,6.39,6.39,0,0,1,4.68-1.75,6.87,6.87,0,0,1,5.59,2.58A9,9,0,0,1,97,38.87Zm-2.86,0c0-.39,0-.86,0-1.42a10.88,10.88,0,0,0-.24-1.73,7.18,7.18,0,0,0-1.34-2.9,3.77,3.77,0,0,0-3.21-1.31,3.69,3.69,0,0,0-3.49,1.74,9.79,9.79,0,0,0-1.22,3.84c0,.29,0,.59-.07.9s0,.61,0,.9,0,.89,0,1.44A9.75,9.75,0,0,0,84.79,42a7.06,7.06,0,0,0,1.34,2.9,3.78,3.78,0,0,0,3.21,1.32,3.68,3.68,0,0,0,3.48-1.74,9.64,9.64,0,0,0,1.23-3.84c0-.3,0-.6.07-.9s0-.61,0-.91Z"/>
      <path fill="#1e2758" d="M98.62,30.79h8.13l.6.05a5.54,5.54,0,0,1,.6.06,6.87,6.87,0,0,1,3,1.11,3.11,3.11,0,0,1,1.35,2.78,3.09,3.09,0,0,1-1.37,2.81,6.88,6.88,0,0,1-3,1.09l-.41.05-.4,0v0a3.91,3.91,0,0,1,2.25.92,4.3,4.3,0,0,1,1.19,2.12l.38,1.43c0,.07,0,.14,0,.2s0,.12,0,.2a.11.11,0,0,0,0,.05.18.18,0,0,1,0,.06,7.9,7.9,0,0,0,.22.87,2.65,2.65,0,0,0,.41.78,1.76,1.76,0,0,0,.27.14.71.71,0,0,0,.24,0,.55.55,0,0,0,.51-.37,2.84,2.84,0,0,0,.25-.81,4.59,4.59,0,0,0,.08-.59c0-.19,0-.33,0-.44l.91,0v.27a6.33,6.33,0,0,1-.6,2.48,2.18,2.18,0,0,1-2.21,1.13l-.33,0-.36-.08a2.73,2.73,0,0,1-.65-.3,1.62,1.62,0,0,1-.49-.44,3.63,3.63,0,0,1-.47-.87,5.39,5.39,0,0,1-.27-1c0-.15,0-.3,0-.43a2.48,2.48,0,0,1,0-.38,2.34,2.34,0,0,1,0-.26,1.81,1.81,0,0,0,0-.23.41.41,0,0,0,0-.12.53.53,0,0,1,0-.13,6.35,6.35,0,0,0-.84-2.9q-.67-1-2.76-1h-1.24v5.7a3.05,3.05,0,0,0,0,.62c0,.2.19.33.46.4a1.74,1.74,0,0,0,.56.1h1a1.55,1.55,0,0,1,.31,0v1H98.58v-1h.91a5.9,5.9,0,0,0,.74,0,1.33,1.33,0,0,0,.65-.27l.08-.1a.61.61,0,0,0,.05-.12s0,0,0,0a.06.06,0,0,0,0,0,1.16,1.16,0,0,0,0-.18l0-.18v-12a1.23,1.23,0,0,0,0-.19,1,1,0,0,0,0-.15c0-.06,0-.13,0-.2s-.19-.34-.32-.38a1.43,1.43,0,0,0-.44-.09H100l-1.41-.07Zm4.92,2.32V38l.47.06h1.83l.42,0,.41,0,.41,0a.57.57,0,0,0,.18,0l.18,0a3.69,3.69,0,0,0,.9-.31,2,2,0,0,0,.73-.63,2.12,2.12,0,0,0,.24-.5,5.34,5.34,0,0,0,.21-.64,3.41,3.41,0,0,0,.06-.43,2.77,2.77,0,0,0,0-.39,4.1,4.1,0,0,0-.51-2.09,2.11,2.11,0,0,0-1.86-1L106,31.84l-1.22,0h-.22l-.3,0a1.7,1.7,0,0,0-.35.06.53.53,0,0,0-.21.09,1,1,0,0,0-.12.28,3.06,3.06,0,0,0,0,.32,1.23,1.23,0,0,0,0,.27v.22Z"/>
      <path fill="#1e2758" d="M115,46.91v-1a.64.64,0,0,0,.2,0h.25l.22,0h.25a4.87,4.87,0,0,0,.55,0,1.2,1.2,0,0,0,.43-.09c.29-.12.47-.26.51-.43a2.53,2.53,0,0,0,.07-.68V32.94c0-.11,0-.2,0-.29a1.31,1.31,0,0,0-.06-.27.66.66,0,0,0-.07-.15.49.49,0,0,0-.11-.14,1.35,1.35,0,0,0-.66-.24,5.77,5.77,0,0,0-.72,0h-.61a.86.86,0,0,1-.22,0v-1h7.37v1l-.91,0q-.45,0-.9.06a1.15,1.15,0,0,0-.35.15.9.9,0,0,0-.23.27.09.09,0,0,1,0,0l0,0c0,.12,0,.24,0,.37s0,.25,0,.37v12a1.49,1.49,0,0,0,0,.21l0,0a.43.43,0,0,0,0,0l0,0a.33.33,0,0,0,.07.13l.09.1a1.19,1.19,0,0,0,.66.25,4.56,4.56,0,0,0,.74,0h.59a.58.58,0,0,1,.19,0v1Z"/>
      <path fill="#1e2758" d="M125.29,36.46h-.91l.40-5.67h11.07v.85L126.63,45.9h3.46a3.35,3.35,0,0,0,.55,0,4.93,4.93,0,0,0,.55,0,8.1,8.1,0,0,0,1-.18,3.26,3.26,0,0,0,.87-.33,2.31,2.31,0,0,0,.9-.88,9,9,0,0,0,.5-1.13s0-.09.06-.15a.75.75,0,0,0,.05-.16,5,5,0,0,0,.19-.63,4.9,4.9,0,0,0,.13-.62l.12-.52a4.51,4.51,0,0,0,.08-.53l1,0-.4,6.12h-11.9V46l9.18-14.24h-3.06c-1.56,0-2.6.33-3.12.95a6.86,6.86,0,0,0-1.21,2.75c0,.17-.07.33-.1.48s-.08.33-.13.5Z"/>
      <path fill="#1e2758" d="M153.19,38.85a8,8,0,0,1-.12,1.37,10.17,10.17,0,0,1-.37,1.44,9.74,9.74,0,0,1-2.49,3.84,6.38,6.38,0,0,1-4.67,1.74A6.86,6.86,0,0,1,140,44.68a8.89,8.89,0,0,1-2.11-5.81,8.05,8.05,0,0,1,.12-1.35,9.25,9.25,0,0,1,.37-1.44,9.73,9.73,0,0,1,2.49-3.85,6.39,6.39,0,0,1,4.67-1.75,6.85,6.85,0,0,1,5.59,2.58,8.93,8.93,0,0,1,2.11,5.81Zm-2.85,0c0-.39,0-.86-.05-1.42A9.89,9.89,0,0,0,150,35.7a7.16,7.16,0,0,0-1.33-2.9,3.78,3.78,0,0,0-3.22-1.31A3.68,3.68,0,0,0,142,33.23a9.64,9.64,0,0,0-1.23,3.84q0,.43-.06.9c0,.3,0,.61,0,.9s0,.89.05,1.44A10.73,10.73,0,0,0,141,42a7.19,7.19,0,0,0,1.34,2.9,3.78,3.78,0,0,0,3.22,1.32A3.68,3.68,0,0,0,149,44.52a9.64,9.64,0,0,0,1.23-3.84q0-.45.06-.9c0-.31,0-.61,0-.91Z"/>
      <path fill="#1e2758" d="M154.62,46.91v-1a.11.11,0,0,0,.1,0h.12l.66-.1a4.61,4.61,0,0,0,.64-.16,1.38,1.38,0,0,0,.77-.75,5,5,0,0,0,.32-1.15c0-.24,0-.47,0-.7s0-.44,0-.62V32.54a1.49,1.49,0,0,0-.68-.53,2.93,2.93,0,0,0-.88-.17h-1.09v-1h4.66l8.86,12h.05V34.36a2.87,2.87,0,0,0-.57-1.93,3.16,3.16,0,0,0-2-.61v-1h6.28v1a2.73,2.73,0,0,0-2.08.74,4,4,0,0,0-.51,2.14V47.24h-.87l-10-13.66h-.05V43a12.19,12.19,0,0,0,.07,1.24,2.06,2.06,0,0,0,.51,1.1,2,2,0,0,0,.44.27,2.15,2.15,0,0,0,.48.18l.28.05.3,0,.3,0,.28,0v1Z"/>
      <path fill="#f6b124" d="M39.08,68.55a2.61,2.61,0,0,1-.83-.12c-.21-.07-.4-.32-.56-.72l-5-12.12H32L27.45,67.08v0a2.24,2.24,0,0,1-.72,1.07,1.94,1.94,0,0,1-1.21.37v.84h4.93v-.82l-.3,0c-.12,0-.21,0-.33,0a2.14,2.14,0,0,1-.88-.25.81.81,0,0,1-.4-.77.83.83,0,0,1,0-.28.78.78,0,0,1,0-.21,2,2,0,0,0,.07-.23,1.72,1.72,0,0,1,.1-.26c0-.18.11-.34.16-.51s.12-.35.19-.51a2.26,2.26,0,0,0,.11-.26,2.16,2.16,0,0,1,.1-.25h5l1.12,2.72v.05s0,0,0,0a1.21,1.21,0,0,1,0,.14V68a.37.37,0,0,1-.12.25.45.45,0,0,1-.21.17h-.06l-.52.06c-.18,0-.35,0-.53,0H34a.08.08,0,0,0-.07,0h-.19l-.16,0v.84h5.74v-.82H39.2ZM29.68,64l2.15-5.51L34,64Z"/>
      <path fill="#f6b124" d="M45.76,55.87h5.05v.84a1.69,1.69,0,0,0-1.44.42,4.18,4.18,0,0,0-.77,1.34L44.25,69.66h-.7L38.9,58l-.14-.35-.14-.3a1.08,1.08,0,0,0-.56-.56A3.44,3.44,0,0,0,37,56.73v-.86h5.81v.84l-.21,0h-.93a1.25,1.25,0,0,0-.53.12c-.17.07-.24.21-.24.46a.27.27,0,0,0,.05.16,2.46,2.46,0,0,1,.07.24v0s0,0,0,0,.05.12.07.16a.59.59,0,0,1,.05.14l3.35,8.54,2.77-7.44c0-.05,0-.07.07-.12a.27.27,0,0,1,0-.14,2.13,2.13,0,0,0,.11-.33,1,1,0,0,0,.09-.32l.07-.28v-.28a.73.73,0,0,0-.37-.72,1.94,1.94,0,0,0-.79-.26,2.42,2.42,0,0,0-.37,0h-.35Z"/>
      <path fill="#f6b124" d="M24.71,66.78a4.87,4.87,0,0,1-.05.51,3.19,3.19,0,0,1-.21.68.48.48,0,0,1-.44.32.81.81,0,0,1-.19,0,1.27,1.27,0,0,1-.23-.12,2.06,2.06,0,0,1-.35-.65,7.46,7.46,0,0,1-.19-.75v0a.12.12,0,0,1,0,0s0-.12,0-.16a.69.69,0,0,1-.05-.17l-.3-1.2a3.55,3.55,0,0,0-1-1.77,3.32,3.32,0,0,0-1.89-.77v0a1.38,1.38,0,0,0,.35,0l.33,0A5.86,5.86,0,0,0,23,61.57a3,3,0,0,0,0-4.68A5.63,5.63,0,0,0,20.5,56L20,55.89l-.51,0H12.66v.84l1.18,0h.07s0,0,.05,0H14l.37.07a.55.55,0,0,1,.26.32.73.73,0,0,1,0,.16.25.25,0,0,1,0,.14c0,.05,0,.1,0,.17V67.71c0,.05,0,.12-.05.16a.32.32,0,0,1,0,.14v0l0,0a.19.19,0,0,1-.05.12.21.21,0,0,1,0,.09,1.09,1.09,0,0,1-.56.21,5.39,5.39,0,0,1-.6,0h-.77v.84H18.8v-.82a1.06,1.06,0,0,0-.26,0h-.37a2.69,2.69,0,0,1-.49,0,1.65,1.65,0,0,1-.46-.06c-.24-.07-.35-.19-.38-.35a2.18,2.18,0,0,1-.07-.52V62.8h1.07a2.75,2.75,0,0,1,2.31.89,5.4,5.4,0,0,1,.69,2.44c0,.05,0,.07,0,.09v.12a.47.47,0,0,1,0,.18c0,.07,0,.14,0,.21s0,.21,0,.33,0,.23,0,.35a5.05,5.05,0,0,0,.21.81,3.83,3.83,0,0,0,.4.72,1.7,1.7,0,0,0,.42.38,3.17,3.17,0,0,0,.53.25l.31.07a1.42,1.42,0,0,0,.27,0,1.83,1.83,0,0,0,1.87-1,5.68,5.68,0,0,0,.51-2.07v-.23l-.77,0A2.37,2.37,0,0,1,24.71,66.78Zm-5.63-4.84a2,2,0,0,0-.35,0H17.19l-.42,0V57.61c0-.07,0-.14,0-.21a1.47,1.47,0,0,0,0-.27,1.34,1.34,0,0,1,.12-.24.5.5,0,0,1,.16-.07l.3-.07.26,0h.16c.35,0,.7,0,1.05,0s.68,0,1,0a1.79,1.79,0,0,1,1.56.81,3.46,3.46,0,0,1,.42,1.75v.32c0,.12-.05.26-.07.38a3,3,0,0,1-.37.95,2.08,2.08,0,0,1-.61.54,2.68,2.68,0,0,1-.77.25l-.14,0a.26.26,0,0,1-.16,0l-.32,0A2,2,0,0,0,19.08,61.94Z"/>
      <path fill="#f6b124" d="M76.26,64.29l-.4,5.1h-11v-.84h.68a1.23,1.23,0,0,0,.32,0,1.94,1.94,0,0,0,.33,0c.35,0,.56-.14.6-.35a2.24,2.24,0,0,0,.1-.72v-10a.66.66,0,0,0,0-.23A.36.36,0,0,0,66.7,57s0,0,0-.07l-.09-.07s0,0,0,0h0l0,0-.41-.07h-.42a2.82,2.82,0,0,0-.4,0h-.42v-.86H71v.84l-.6,0a5.82,5.82,0,0,0-.59,0h-.18l-.28,0a.55.55,0,0,0-.26.14s0,0-.07.07a.25.25,0,0,0,0,.11s0,0,0,0,0,0,0,.05a.3.3,0,0,0,0,.13.34.34,0,0,0,0,.17V67.73a1.57,1.57,0,0,0,.12.45.55.55,0,0,0,.3.3,4.9,4.9,0,0,0,.54,0,3.43,3.43,0,0,0,.56,0h1l.47,0a5.72,5.72,0,0,0,1-.16,3.18,3.18,0,0,0,.9-.35,2,2,0,0,0,.79-.82,7.28,7.28,0,0,0,.47-1,2,2,0,0,1,.07-.19.78.78,0,0,1,0-.14,5.52,5.52,0,0,0,.16-.54c0-.16.07-.34.12-.51a1.26,1.26,0,0,0,0-.28c0-.07,0-.16,0-.25Z"/>
      <path fill="#f6b124" d="M11.49,55.87l.3,5.21H11L11,60.73a2.27,2.27,0,0,0-.05-.35c-.09-.37-.16-.72-.28-1.09a6.69,6.69,0,0,0-.39-1,2.56,2.56,0,0,0-1-1.14,2.67,2.67,0,0,0-1.46-.42H7.7a.25.25,0,0,0-.12,0,.69.69,0,0,0-.37.1.42.42,0,0,0-.25.28.86.86,0,0,0,0,.3,1.62,1.62,0,0,0,0,.32v10a1.05,1.05,0,0,0,.07.4.5.5,0,0,0,.26.28,1.64,1.64,0,0,0,.55.16h.86l.47,0v.84H2.58v-.84L4,68.48s.07,0,.11,0h.1a.79.79,0,0,0,.23,0l.23-.07a.66.66,0,0,0,.17-.28,1.08,1.08,0,0,0,0-.35V57.24s0-.09,0-.11a.43.43,0,0,0-.26-.28.64.64,0,0,0-.35-.1.32.32,0,0,0-.14,0H3.93a2.64,2.64,0,0,0-1.35.35,3.44,3.44,0,0,0-1,1,2.47,2.47,0,0,0-.31.63c-.09.25-.16.51-.23.77a3.17,3.17,0,0,0-.12.44,4.31,4.31,0,0,0-.09.44s0,.09,0,.16a.47.47,0,0,0,0,.16.68.68,0,0,0,0,.19A.6.6,0,0,0,.72,61H0l.35-5.16Z"/>
      <path fill="#f6b124" d="M62.28,64.41l.77,0-.35,5H51.18v-.84h.56l.12,0,.11,0h.14c.07,0,.12,0,.19,0a1.63,1.63,0,0,0,.58-.13.65.65,0,0,0,.35-.42.75.75,0,0,1,0-.21V57.47a.55.55,0,0,1,0-.18.63.63,0,0,0-.19-.4,1,1,0,0,0-.42-.11,5.75,5.75,0,0,0-.69-.05H51.2v-.86H62.49l.25,4.79H62c-.3-1.77-.77-2.88-1.39-3.3a6.8,6.8,0,0,0-3.49-.63l-.4,0a3.94,3.94,0,0,0-1.05.11c-.21,0-.32.28-.32.63v4.49H56a2.38,2.38,0,0,0,1.82-.56,2.9,2.9,0,0,0,.67-2l.84,0v6.17h-.84a3.32,3.32,0,0,0-.51-2,1.85,1.85,0,0,0-1.63-.74h-1V68a.15.15,0,0,1,0,.1l.07.09.09.12a1.42,1.42,0,0,0,.35.14l.35,0h.17a3,3,0,0,0,.6.07l.61,0,.74,0a5.51,5.51,0,0,0,.79-.07,2.71,2.71,0,0,0,2.09-1.07,6.63,6.63,0,0,0,.93-2.26s0-.07,0-.11,0-.07,0-.12a.78.78,0,0,0,.05-.23A2.29,2.29,0,0,1,62.28,64.41Z"/>
      <path fill="#f6b124" d="M38.78,5.22a1.17,1.17,0,0,1,0-1.67,1.15,1.15,0,0,1,.84-.35,1.18,1.18,0,0,1,.84.35,1.12,1.12,0,0,1,.32.84,1.11,1.11,0,0,1-.32.83,1.14,1.14,0,0,1-.84.35A1.11,1.11,0,0,1,38.78,5.22Z"/>
      <path fill="#f6b124" d="M9.17,5.34a1.23,1.23,0,0,1-.35-.88,1.11,1.11,0,0,1,.35-.84A1.07,1.07,0,0,1,10,3.25a1.09,1.09,0,0,1,.86.37,1.15,1.15,0,0,1,.35.84,1.27,1.27,0,0,1-.35.88,1.18,1.18,0,0,1-.86.35A1.16,1.16,0,0,1,9.17,5.34Z"/>
      <path fill="#f6b124" d="M12,6.76h3V16.6H5.4a4.56,4.56,0,0,1-1.82-.37,4.39,4.39,0,0,1-1.49-1,4.59,4.59,0,0,1-1-1.49,4.72,4.72,0,0,1-.35-1.82v-.46a5,5,0,0,1,.35-1.82,4.59,4.59,0,0,1,1-1.49,4.59,4.59,0,0,1,1.49-1A4.93,4.93,0,0,1,5.4,6.76H8.28V10.3H6.61a1.17,1.17,0,0,0-.33-.82,1.2,1.2,0,0,0-.84-.32H5.28a1.62,1.62,0,0,0-1.63,1.62V12.3a1.9,1.9,0,0,0,.17.74,2.24,2.24,0,0,0,.44.63,2.46,2.46,0,0,0,.6.42,2,2,0,0,0,.75.16H12Z"/>
      <path fill="#f6b124" d="M23.5,17.79a1.14,1.14,0,0,1,.35.88,1.19,1.19,0,0,1-.35.86,1.26,1.26,0,0,1-.86.33,1.25,1.25,0,0,1-.89-.33,1.19,1.19,0,0,1-.35-.86,1.24,1.24,0,0,1,2.1-.88Z"/>
      <polygon fill="#f6b124" points="17.17 16.65 17.17 3.55 20.05 3.55 20.05 14.27 23.31 14.27 23.31 6.76 26.22 6.76 26.22 16.65 17.17 16.65"/>
      <path fill="#f6b124" d="M26.24,17.79a1.06,1.06,0,0,1,.37.88,1.1,1.1,0,0,1-.37.86,1.26,1.26,0,0,1-.86.33,1.31,1.31,0,0,1-.88-.33,1.18,1.18,0,0,1-.38-.86,1.13,1.13,0,0,1,.38-.88,1.2,1.2,0,0,1,.88-.35A1.15,1.15,0,0,1,26.24,17.79Z"/>
      <path fill="#f6b124" d="M6.44,5.34a1.26,1.26,0,0,1-.34-.88,1.14,1.14,0,0,1,.34-.84,1.1,1.1,0,0,1,.86-.37,1.14,1.14,0,0,1,.87.37,1.2,1.2,0,0,1,.32.84,1.34,1.34,0,0,1-.32.88,1.23,1.23,0,0,1-.87.35A1.19,1.19,0,0,1,6.44,5.34Z"/>
      <path fill="#f6b124" d="M68.26,3.46V14.27H65.79V3.48H62.86V14.27H60.63v0h-.8V6.71h-2.9V14.3h-2V6.71H52V14.3H49.9V6.71H47V14.3H46.2c-.07,0-.11,0-.21,0H43.71V6.74h-5a3.43,3.43,0,0,0-1.4.28,3.55,3.55,0,0,0-1.09.76,4.31,4.31,0,0,0-.75,1.12,3.48,3.48,0,0,0-.25,1.35v4h-3V6.71h-3V17.07a3,3,0,0,1-.37,1.51,2.86,2.86,0,0,1-.58.56c-.05,0-.05,0-.05,0s0,.05,0,.05a5.57,5.57,0,0,0,1.25.14,2.87,2.87,0,0,0,1.77-.58,2.32,2.32,0,0,0,.88-1.61.77.77,0,0,1,0-.25,1.7,1.7,0,0,0,0-.28h39V3.46ZM40.85,14.27H38.11V10.55a1.37,1.37,0,0,1,.44-1.05,1.47,1.47,0,0,1,1.07-.41h1.23Z"/>
      <path fill="#1e2758" d="M82.87,6.57H85.8v7.26c0,1.49-.12,3.12-1.24,4.14a5.33,5.33,0,0,1-3.65,1.28A4.16,4.16,0,0,1,76.56,15V6.57h3.82v1.1c-.75,0-1.33.37-1.33,1.07v4.84a12.74,12.74,0,0,0,0,1.95,1.82,1.82,0,0,0,2,1.42,1.89,1.89,0,0,0,1.38-.79,3,3,0,0,0,.42-1.7c.11-1.37-.05-2.82,0-4.23Z"/>
      <path fill="#1e2758" d="M108.88,17.79a1.14,1.14,0,0,1,.34.88,1.18,1.18,0,0,1-.34.86,1.35,1.35,0,0,1-.87.33,1.3,1.3,0,0,1-.88-.33,1.1,1.1,0,0,1-.37-.86,1.06,1.06,0,0,1,.37-.88,1.18,1.18,0,0,1,.88-.35A1.22,1.22,0,0,1,108.88,17.79Z"/>
      <path fill="#1e2758" d="M80,4.22a1.22,1.22,0,0,1,2.44,0,1.22,1.22,0,1,1-2.44,0Z"/>
      <rect fill="#1e2758" x="111.32" y="3.55" width="2.88" height="13.12"/>
      <path fill="#1e2758" d="M100,5a1.18,1.18,0,0,1-.32-.86,1.14,1.14,0,0,1,.32-.86,1.19,1.19,0,0,1,.87-.38,1.22,1.22,0,0,1,.86.38,1.16,1.16,0,0,1,.35.86,1.21,1.21,0,0,1-.35.86,1.23,1.23,0,0,1-.86.35A1.2,1.2,0,0,1,100,5Z"/>
      <path fill="#1e2758" d="M96.55,10.85c0-1.32,0-2.74,0-4.21H91.43a3.38,3.38,0,0,0-1.26.26,3.55,3.55,0,0,0-1,.65,3.36,3.36,0,0,0-.69.93,2.73,2.73,0,0,0-.26,1.16v7h5.58V17a4.46,4.46,0,0,1-.14.93,2.24,2.24,0,0,1-.3.6,1,1,0,0,1-.32.38,2.13,2.13,0,0,1-.31.21s0,0,0,0a.11.11,0,0,0,.09.05,6.74,6.74,0,0,0,1.14.11,2.36,2.36,0,0,0,1.72-.62,2.85,2.85,0,0,0,.87-1.65,3.69,3.69,0,0,0,.11-1c0-.33,0-.68,0-1C96.57,13.6,96.55,12.2,96.55,10.85ZM93.71,14.3H91.05v-4a1,1,0,0,1,.38-.81,1.23,1.23,0,0,1,.86-.33h1.42Z"/>
      <path fill="#1e2758" d="M106.11,17.79a1.14,1.14,0,0,1,.35.88,1.19,1.19,0,0,1-.35.86,1.26,1.26,0,0,1-.86.33,1.3,1.3,0,0,1-.89-.33,1.19,1.19,0,0,1-.35-.86,1.14,1.14,0,0,1,.35-.88,1.19,1.19,0,0,1,.89-.35A1.15,1.15,0,0,1,106.11,17.79Z"/>
      <path fill="#1e2758" d="M102.5,16.65a1.47,1.47,0,0,1,0,.28.77.77,0,0,0,0,.25,2.3,2.3,0,0,1-.9,1.61,2.89,2.89,0,0,1-1.77.55c-.21,0-.42,0-.63,0s-.42-.07-.6-.09,0,0,0-.05,0,0,0,0l.28-.21a1.12,1.12,0,0,0,.3-.38,2.88,2.88,0,0,0,.25-.58,4.46,4.46,0,0,0,.12-.9V6.85h3V14.3h1.26v0h2.23V6.76h2.89v9.89Z"/>
      <path fill="#1e2758" d="M119.39,15.16c0,.32,0,.65,0,1a4.16,4.16,0,0,1,0,1,2.41,2.41,0,0,1-.93,1.63,3,3,0,0,1-1.81.55,5.82,5.82,0,0,1-.59,0c-.21,0-.42-.07-.6-.09s0,0,0-.05,0,0,0,0l.28-.21a1.25,1.25,0,0,0,.3-.38,2.87,2.87,0,0,0,.26-.58,8.87,8.87,0,0,0,.11-.9V6.74h3Z"/>
      <path fill="#1e2758" d="M144.59,7.88A4.79,4.79,0,0,0,143.24,7a4.16,4.16,0,0,0-1.63-.33h-5a2.75,2.75,0,0,0-1.42.38,4,4,0,0,0-1.16.93,3.88,3.88,0,0,0-.77,1.18,3,3,0,0,0-.28,1.14v4h-2.84V6.76h-5.11a3.75,3.75,0,0,0-1.26.23,3.55,3.55,0,0,0-1,.65,3.11,3.11,0,0,0-.69,1,2.63,2.63,0,0,0-.26,1.16v6.89h5.56V17a4.46,4.46,0,0,1-.14.93,3.81,3.81,0,0,1-.28.6,1.4,1.4,0,0,1-.35.37,1.67,1.67,0,0,1-.28.21c0,.05,0,.1.05.1s.37.07.58.09a5.06,5.06,0,0,0,.54,0,2.57,2.57,0,0,0,1.74-.6,2.84,2.84,0,0,0,.86-1.65.43.43,0,0,0,0-.21v-.21h15.68V11a4,4,0,0,0-.33-1.7A4.18,4.18,0,0,0,144.59,7.88Zm-17.27,6.39h-2.63V10.41a1.1,1.1,0,0,1,.38-.84,1.2,1.2,0,0,1,.83-.32h1.42Zm10.87,0H136V10.5a1.48,1.48,0,0,1,.51-1.18,2,2,0,0,1,1.26-.44h.44Zm4.56,0h-2.24V8.88H141a2.11,2.11,0,0,1,1.28.44,1.51,1.51,0,0,1,.51,1.18Z"/>
      <path fill="#1e2758" d="M163.41,17.74a1.2,1.2,0,0,1,.32.84,1.27,1.27,0,0,1-.32.88,1.23,1.23,0,0,1-.86.35,1.18,1.18,0,0,1-1.21-1.23,1.14,1.14,0,0,1,.34-.84,1.2,1.2,0,0,1,.87-.35A1.23,1.23,0,0,1,163.41,17.74Z"/>
      <path fill="#1e2758" d="M168.36,6.67v7.6h-2.93V6.76h-2.88v7.51h-2.84V6.76h-5.14a3.71,3.71,0,0,0-1.26.23,3.54,3.54,0,0,0-1,.65,2.49,2.49,0,0,0-.7,1,2.63,2.63,0,0,0-.26,1.16v6.89h5.56V17a3.38,3.38,0,0,1-.16.93,1.76,1.76,0,0,1-.28.6,1,1,0,0,1-.33.37,1.18,1.18,0,0,1-.3.21c0,.05,0,.1.05.1.21,0,.39.07.58.09a5.24,5.24,0,0,0,.56,0,2.52,2.52,0,0,0,1.72-.6,2.86,2.86,0,0,0,.88-1.65,1,1,0,0,0,0-.21v-.21h11.68v-10Zm-11.51,7.6h-2.63V10.41a1.14,1.14,0,0,1,.35-.84,1.27,1.27,0,0,1,.83-.32h1.45Z"/>
      <path fill="#1e2758" d="M169,5.2a1.23,1.23,0,0,1-.33-.86,1.23,1.23,0,0,1,.33-.86,1.19,1.19,0,0,1,.86-.35,1.21,1.21,0,0,1,.88.35,1.16,1.16,0,0,1,.35.86,1.16,1.16,0,0,1-.35.86,1.12,1.12,0,0,1-.88.37A1.1,1.1,0,0,1,169,5.2Z"/>
      <path fill="#1e2758" d="M166.13,17.74a1.09,1.09,0,0,1,.37.84,1.15,1.15,0,0,1-.37.88,1.18,1.18,0,0,1-.86.35,1.23,1.23,0,0,1-.86-.35,1.17,1.17,0,0,1-.35-.88,1.11,1.11,0,0,1,.35-.84,1.23,1.23,0,0,1,.86-.35A1.18,1.18,0,0,1,166.13,17.74Z"/>
    </g>
  </g>
</svg>
